%TF.GenerationSoftware,KiCad,Pcbnew,10.0.3*%
%TF.CreationDate,2026-09-02T19:35:32+06:00*%
%TF.ProjectId,usbc_power_hub,75736263-5f70-46f7-9765-725f6875622e,rev?*%
%TF.SameCoordinates,Original*%
%TF.FileFunction,Copper,L2,Bot*%
%TF.FilePolarity,Positive*%
%FSLAX46Y46*%
G04 Gerber Fmt 4.6, Leading zero omitted, Abs format (unit mm)*
G04 Created by KiCad (PCBNEW 10.0.3) date 2026-09-02 19:35:32*
%MOMM*%
%LPD*%
G01*
G04 APERTURE LIST*
%TA.AperFunction,ComponentPad*%
%ADD10R,1.700000X1.700000*%
%TD*%
%TA.AperFunction,ComponentPad*%
%ADD11C,1.700000*%
%TD*%
%TA.AperFunction,ComponentPad*%
%ADD12O,1.000000X2.100000*%
%TD*%
%TA.AperFunction,ComponentPad*%
%ADD13O,1.000000X1.600000*%
%TD*%
%TA.AperFunction,ViaPad*%
%ADD14C,0.600000*%
%TD*%
%TA.AperFunction,Conductor*%
%ADD15C,0.200000*%
%TD*%
G04 APERTURE END LIST*
D10*
%TO.P,J2,1*%
%TO.N,VBAT*%
X48000000Y-14000000D03*
D11*
%TO.P,J2,2*%
%TO.N,GND*%
X48000000Y-16540000D03*
%TD*%
D12*
%TO.P,J1,SH*%
%TO.N,GND*%
X3680000Y-16870000D03*
D13*
%TO.N,N/C*%
X3680000Y-21050000D03*
D12*
X12320000Y-16870000D03*
D13*
X12320000Y-21050000D03*
%TD*%
D10*
%TO.P,J3,1*%
%TO.N,VBUS*%
X48000000Y-28000000D03*
D11*
%TO.P,J3,2*%
%TO.N,VBAT*%
X48000000Y-30540000D03*
%TO.P,J3,3*%
%TO.N,+3V3*%
X48000000Y-33080000D03*
%TO.P,J3,4*%
%TO.N,GND*%
X48000000Y-35620000D03*
%TD*%
D14*
%TO.N,VBUS*%
X27910000Y-21804200D03*
X25113200Y-18213100D03*
%TO.N,CC2*%
X10068600Y-27178200D03*
X9624600Y-17194600D03*
%TO.N,CC1*%
X8178800Y-17202700D03*
X11323100Y-14058400D03*
%TO.N,+3V3*%
X43518200Y-31446800D03*
X38984000Y-7220200D03*
%TO.N,CHRG_STAT*%
X22062500Y-13900100D03*
X22062500Y-7229400D03*
%TO.N,STDBY_STAT*%
X30996600Y-5990700D03*
X29465900Y-17991700D03*
%TD*%
%TO.N,VBUS*%
D15*
X27910000Y-21009900D02*
X25113200Y-18213100D01*
X27910000Y-21804200D02*
X27910000Y-21009900D01*
%TO.N,CC2*%
X10068600Y-27178200D02*
X9624600Y-26734200D01*
X9624600Y-26734200D02*
X9624600Y-17194600D01*
%TO.N,CC1*%
X11323100Y-14058400D02*
X8178800Y-17202700D01*
%TO.N,VBAT*%
X48000000Y-15151700D02*
X48288000Y-15151700D01*
X48288000Y-15151700D02*
X49151700Y-16015400D01*
X48000000Y-14000000D02*
X48000000Y-15151700D01*
X49151700Y-29388300D02*
X48000000Y-30540000D01*
X49151700Y-16015400D02*
X49151700Y-29388300D01*
%TO.N,+3V3*%
X43518200Y-31446800D02*
X43518200Y-11754400D01*
X45151400Y-33080000D02*
X43518200Y-31446800D01*
X43518200Y-11754400D02*
X38984000Y-7220200D01*
X48000000Y-33080000D02*
X45151400Y-33080000D01*
%TO.N,CHRG_STAT*%
X22062500Y-7229400D02*
X22062500Y-13900100D01*
%TO.N,STDBY_STAT*%
X30996600Y-5990700D02*
X30996600Y-16461000D01*
X30996600Y-16461000D02*
X29465900Y-17991700D01*
%TD*%
%TA.AperFunction,Conductor*%
%TO.N,GND*%
G36*
X54458691Y-519407D02*
G01*
X54494655Y-568907D01*
X54499500Y-599500D01*
X54499500Y-39400500D01*
X54480593Y-39458691D01*
X54431093Y-39494655D01*
X54400500Y-39499500D01*
X599500Y-39499500D01*
X541309Y-39480593D01*
X505345Y-39431093D01*
X500500Y-39400500D01*
X500500Y-20671155D01*
X2879500Y-20671155D01*
X2879500Y-21428844D01*
X2910263Y-21583496D01*
X2910263Y-21583498D01*
X2970603Y-21729174D01*
X2970609Y-21729185D01*
X3023312Y-21808059D01*
X3058211Y-21860289D01*
X3169711Y-21971789D01*
X3247876Y-22024017D01*
X3300814Y-22059390D01*
X3300825Y-22059396D01*
X3354638Y-22081685D01*
X3446503Y-22119737D01*
X3601158Y-22150500D01*
X3601159Y-22150500D01*
X3758841Y-22150500D01*
X3758842Y-22150500D01*
X3913497Y-22119737D01*
X4059179Y-22059394D01*
X4190289Y-21971789D01*
X4301789Y-21860289D01*
X4389394Y-21729179D01*
X4449737Y-21583497D01*
X4480500Y-21428842D01*
X4480500Y-20671158D01*
X4449737Y-20516503D01*
X4389394Y-20370821D01*
X4389393Y-20370819D01*
X4389390Y-20370814D01*
X4354017Y-20317876D01*
X4301789Y-20239711D01*
X4190289Y-20128211D01*
X4138059Y-20093312D01*
X4059185Y-20040609D01*
X4059174Y-20040603D01*
X3913497Y-19980263D01*
X3758844Y-19949500D01*
X3758842Y-19949500D01*
X3601158Y-19949500D01*
X3601155Y-19949500D01*
X3446503Y-19980263D01*
X3446501Y-19980263D01*
X3300825Y-20040603D01*
X3300814Y-20040609D01*
X3169711Y-20128211D01*
X3169707Y-20128214D01*
X3058214Y-20239707D01*
X3058211Y-20239711D01*
X2970609Y-20370814D01*
X2970603Y-20370825D01*
X2910263Y-20516501D01*
X2910263Y-20516503D01*
X2879500Y-20671155D01*
X500500Y-20671155D01*
X500500Y-17324234D01*
X4534500Y-17324234D01*
X4534500Y-17475766D01*
X4557959Y-17563316D01*
X4573720Y-17622139D01*
X4649481Y-17753360D01*
X4649483Y-17753362D01*
X4649485Y-17753365D01*
X4756635Y-17860515D01*
X4756637Y-17860516D01*
X4756639Y-17860518D01*
X4887861Y-17936279D01*
X4887859Y-17936279D01*
X4887863Y-17936280D01*
X4887865Y-17936281D01*
X5034234Y-17975500D01*
X5034236Y-17975500D01*
X5185764Y-17975500D01*
X5185766Y-17975500D01*
X5332135Y-17936281D01*
X5332137Y-17936279D01*
X5332139Y-17936279D01*
X5463360Y-17860518D01*
X5463360Y-17860517D01*
X5463365Y-17860515D01*
X5570515Y-17753365D01*
X5582515Y-17732580D01*
X5646279Y-17622139D01*
X5646279Y-17622137D01*
X5646281Y-17622135D01*
X5685500Y-17475766D01*
X5685500Y-17324234D01*
X5646281Y-17177865D01*
X5631007Y-17151409D01*
X5614976Y-17123643D01*
X7578300Y-17123643D01*
X7578300Y-17281757D01*
X7619223Y-17434484D01*
X7698280Y-17571416D01*
X7810084Y-17683220D01*
X7947016Y-17762277D01*
X8099743Y-17803200D01*
X8099745Y-17803200D01*
X8257855Y-17803200D01*
X8257857Y-17803200D01*
X8410584Y-17762277D01*
X8547516Y-17683220D01*
X8659320Y-17571416D01*
X8738377Y-17434484D01*
X8779300Y-17281757D01*
X8779300Y-17209600D01*
X8781768Y-17202002D01*
X8780519Y-17194113D01*
X8791043Y-17173457D01*
X8798207Y-17151409D01*
X8808296Y-17139596D01*
X8855096Y-17092796D01*
X8909613Y-17065019D01*
X8970045Y-17074590D01*
X9013310Y-17117855D01*
X9024100Y-17162800D01*
X9024100Y-17273657D01*
X9065023Y-17426384D01*
X9144080Y-17563316D01*
X9195105Y-17614341D01*
X9222881Y-17668856D01*
X9224100Y-17684343D01*
X9224100Y-26681473D01*
X9224100Y-26786927D01*
X9229932Y-26808691D01*
X9251394Y-26888792D01*
X9304116Y-26980108D01*
X9304118Y-26980110D01*
X9304120Y-26980113D01*
X9439105Y-27115098D01*
X9466881Y-27169613D01*
X9468100Y-27185100D01*
X9468100Y-27257257D01*
X9509023Y-27409984D01*
X9588080Y-27546916D01*
X9699884Y-27658720D01*
X9836816Y-27737777D01*
X9989543Y-27778700D01*
X9989545Y-27778700D01*
X10147655Y-27778700D01*
X10147657Y-27778700D01*
X10300384Y-27737777D01*
X10437316Y-27658720D01*
X10549120Y-27546916D01*
X10628177Y-27409984D01*
X10669100Y-27257257D01*
X10669100Y-27099143D01*
X10628177Y-26946416D01*
X10549120Y-26809484D01*
X10437316Y-26697680D01*
X10300384Y-26618623D01*
X10147657Y-26577700D01*
X10147655Y-26577700D01*
X10124100Y-26577700D01*
X10065909Y-26558793D01*
X10029945Y-26509293D01*
X10025100Y-26478700D01*
X10025100Y-20671155D01*
X11519500Y-20671155D01*
X11519500Y-21428844D01*
X11550263Y-21583496D01*
X11550263Y-21583498D01*
X11610603Y-21729174D01*
X11610609Y-21729185D01*
X11663312Y-21808059D01*
X11698211Y-21860289D01*
X11809711Y-21971789D01*
X11887876Y-22024017D01*
X11940814Y-22059390D01*
X11940825Y-22059396D01*
X11994638Y-22081685D01*
X12086503Y-22119737D01*
X12241158Y-22150500D01*
X12241159Y-22150500D01*
X12398841Y-22150500D01*
X12398842Y-22150500D01*
X12553497Y-22119737D01*
X12699179Y-22059394D01*
X12830289Y-21971789D01*
X12941789Y-21860289D01*
X13029394Y-21729179D01*
X13089737Y-21583497D01*
X13120500Y-21428842D01*
X13120500Y-20671158D01*
X13089737Y-20516503D01*
X13029394Y-20370821D01*
X13029393Y-20370819D01*
X13029390Y-20370814D01*
X12994017Y-20317876D01*
X12941789Y-20239711D01*
X12830289Y-20128211D01*
X12778059Y-20093312D01*
X12699185Y-20040609D01*
X12699174Y-20040603D01*
X12553497Y-19980263D01*
X12398844Y-19949500D01*
X12398842Y-19949500D01*
X12241158Y-19949500D01*
X12241155Y-19949500D01*
X12086503Y-19980263D01*
X12086501Y-19980263D01*
X11940825Y-20040603D01*
X11940814Y-20040609D01*
X11809711Y-20128211D01*
X11809707Y-20128214D01*
X11698214Y-20239707D01*
X11698211Y-20239711D01*
X11610609Y-20370814D01*
X11610603Y-20370825D01*
X11550263Y-20516501D01*
X11550263Y-20516503D01*
X11519500Y-20671155D01*
X10025100Y-20671155D01*
X10025100Y-17684343D01*
X10025437Y-17683304D01*
X10025122Y-17682259D01*
X10027870Y-17675815D01*
X10044007Y-17626152D01*
X10045250Y-17624480D01*
X10049329Y-17619106D01*
X10105120Y-17563316D01*
X10147768Y-17489445D01*
X10151534Y-17484486D01*
X10171787Y-17470412D01*
X10190116Y-17453909D01*
X10196503Y-17453237D01*
X10201780Y-17449571D01*
X10226440Y-17450090D01*
X10250966Y-17447512D01*
X10256529Y-17450723D01*
X10262951Y-17450859D01*
X10282594Y-17465772D01*
X10303954Y-17478104D01*
X10307542Y-17484712D01*
X10311684Y-17487857D01*
X10314730Y-17497950D01*
X10326011Y-17518726D01*
X10353720Y-17622139D01*
X10429481Y-17753360D01*
X10429483Y-17753362D01*
X10429485Y-17753365D01*
X10536635Y-17860515D01*
X10536637Y-17860516D01*
X10536639Y-17860518D01*
X10667861Y-17936279D01*
X10667859Y-17936279D01*
X10667863Y-17936280D01*
X10667865Y-17936281D01*
X10814234Y-17975500D01*
X10814236Y-17975500D01*
X10965764Y-17975500D01*
X10965766Y-17975500D01*
X11112135Y-17936281D01*
X11112137Y-17936279D01*
X11112139Y-17936279D01*
X11243360Y-17860518D01*
X11243360Y-17860517D01*
X11243365Y-17860515D01*
X11350515Y-17753365D01*
X11390531Y-17684054D01*
X11435999Y-17643114D01*
X11496849Y-17636718D01*
X11549838Y-17667310D01*
X11567731Y-17695670D01*
X11610603Y-17799174D01*
X11610609Y-17799185D01*
X11640811Y-17844384D01*
X11698211Y-17930289D01*
X11809711Y-18041789D01*
X11853062Y-18070755D01*
X11940814Y-18129390D01*
X11940825Y-18129396D01*
X11952047Y-18134044D01*
X12086503Y-18189737D01*
X12241158Y-18220500D01*
X12241159Y-18220500D01*
X12398841Y-18220500D01*
X12398842Y-18220500D01*
X12553497Y-18189737D01*
X12687955Y-18134043D01*
X24512700Y-18134043D01*
X24512700Y-18292157D01*
X24553623Y-18444884D01*
X24632680Y-18581816D01*
X24744484Y-18693620D01*
X24881416Y-18772677D01*
X25034143Y-18813600D01*
X25106299Y-18813600D01*
X25164490Y-18832507D01*
X25176303Y-18842596D01*
X27480504Y-21146797D01*
X27484130Y-21153914D01*
X27490593Y-21158610D01*
X27497756Y-21180658D01*
X27508281Y-21201314D01*
X27509500Y-21216801D01*
X27509500Y-21314456D01*
X27490593Y-21372647D01*
X27480504Y-21384459D01*
X27429482Y-21435481D01*
X27429480Y-21435483D01*
X27429480Y-21435484D01*
X27350423Y-21572416D01*
X27309500Y-21725143D01*
X27309500Y-21883257D01*
X27350423Y-22035984D01*
X27429480Y-22172916D01*
X27541284Y-22284720D01*
X27678216Y-22363777D01*
X27830943Y-22404700D01*
X27830945Y-22404700D01*
X27989055Y-22404700D01*
X27989057Y-22404700D01*
X28141784Y-22363777D01*
X28278716Y-22284720D01*
X28390520Y-22172916D01*
X28469577Y-22035984D01*
X28510500Y-21883257D01*
X28510500Y-21725143D01*
X28469577Y-21572416D01*
X28390520Y-21435484D01*
X28383876Y-21428840D01*
X28339496Y-21384459D01*
X28311719Y-21329942D01*
X28310500Y-21314456D01*
X28310500Y-20957174D01*
X28310500Y-20957173D01*
X28283207Y-20855313D01*
X28230480Y-20763987D01*
X28155913Y-20689419D01*
X28155913Y-20689420D01*
X25742696Y-18276203D01*
X25714919Y-18221686D01*
X25713700Y-18206199D01*
X25713700Y-18134044D01*
X25712453Y-18129390D01*
X25672777Y-17981316D01*
X25633129Y-17912643D01*
X28865400Y-17912643D01*
X28865400Y-18070757D01*
X28906323Y-18223484D01*
X28985380Y-18360416D01*
X29097184Y-18472220D01*
X29234116Y-18551277D01*
X29386843Y-18592200D01*
X29386845Y-18592200D01*
X29544955Y-18592200D01*
X29544957Y-18592200D01*
X29697684Y-18551277D01*
X29834616Y-18472220D01*
X29946420Y-18360416D01*
X30025477Y-18223484D01*
X30066400Y-18070757D01*
X30066400Y-17998599D01*
X30085307Y-17940408D01*
X30095390Y-17928601D01*
X31242510Y-16781481D01*
X31242513Y-16781480D01*
X31317080Y-16706913D01*
X31369807Y-16615587D01*
X31373394Y-16602200D01*
X31397101Y-16513727D01*
X31397101Y-16408273D01*
X31397101Y-16402211D01*
X31397100Y-16402193D01*
X31397100Y-7141143D01*
X38383500Y-7141143D01*
X38383500Y-7299257D01*
X38424423Y-7451984D01*
X38503480Y-7588916D01*
X38615284Y-7700720D01*
X38752216Y-7779777D01*
X38904943Y-7820700D01*
X38977099Y-7820700D01*
X39035290Y-7839607D01*
X39047103Y-7849696D01*
X43088704Y-11891297D01*
X43116481Y-11945814D01*
X43117700Y-11961301D01*
X43117700Y-30957056D01*
X43098793Y-31015247D01*
X43088704Y-31027059D01*
X43037682Y-31078081D01*
X43037680Y-31078083D01*
X43037680Y-31078084D01*
X42958623Y-31215016D01*
X42917700Y-31367743D01*
X42917700Y-31525857D01*
X42958623Y-31678584D01*
X43037680Y-31815516D01*
X43149484Y-31927320D01*
X43286416Y-32006377D01*
X43439143Y-32047300D01*
X43511299Y-32047300D01*
X43569490Y-32066207D01*
X43581303Y-32076296D01*
X44830918Y-33325910D01*
X44830920Y-33325913D01*
X44905487Y-33400480D01*
X44905489Y-33400481D01*
X44996809Y-33453205D01*
X44996813Y-33453207D01*
X45098670Y-33480500D01*
X45098672Y-33480501D01*
X45098673Y-33480501D01*
X45210190Y-33480501D01*
X45210206Y-33480500D01*
X46852161Y-33480500D01*
X46910352Y-33499407D01*
X46940368Y-33534552D01*
X47016004Y-33682994D01*
X47122447Y-33829501D01*
X47250499Y-33957553D01*
X47397006Y-34063996D01*
X47558361Y-34146211D01*
X47730591Y-34202171D01*
X47802136Y-34213502D01*
X47909451Y-34230500D01*
X47909454Y-34230500D01*
X48090549Y-34230500D01*
X48179977Y-34216335D01*
X48269409Y-34202171D01*
X48441639Y-34146211D01*
X48602994Y-34063996D01*
X48749501Y-33957553D01*
X48877553Y-33829501D01*
X48983996Y-33682994D01*
X49066211Y-33521639D01*
X49122171Y-33349409D01*
X49150500Y-33170546D01*
X49150500Y-32989454D01*
X49150500Y-32989450D01*
X49122171Y-32810593D01*
X49122171Y-32810591D01*
X49066211Y-32638361D01*
X48983996Y-32477006D01*
X48877553Y-32330499D01*
X48749501Y-32202447D01*
X48602994Y-32096004D01*
X48602993Y-32096003D01*
X48602991Y-32096002D01*
X48441637Y-32013788D01*
X48269406Y-31957828D01*
X48090549Y-31929500D01*
X48090546Y-31929500D01*
X47909454Y-31929500D01*
X47909451Y-31929500D01*
X47730593Y-31957828D01*
X47558362Y-32013788D01*
X47397008Y-32096002D01*
X47323752Y-32149225D01*
X47250499Y-32202447D01*
X47122447Y-32330499D01*
X47069225Y-32403752D01*
X47016002Y-32477008D01*
X46977129Y-32553301D01*
X46940369Y-32625446D01*
X46897106Y-32668710D01*
X46852161Y-32679500D01*
X45358300Y-32679500D01*
X45300109Y-32660593D01*
X45288296Y-32650504D01*
X44147696Y-31509903D01*
X44119919Y-31455386D01*
X44118700Y-31439899D01*
X44118700Y-31367744D01*
X44097735Y-31289501D01*
X44077777Y-31215016D01*
X43998720Y-31078084D01*
X43998717Y-31078081D01*
X43947696Y-31027059D01*
X43919919Y-30972542D01*
X43918700Y-30957056D01*
X43918700Y-13105130D01*
X46849500Y-13105130D01*
X46849500Y-14894860D01*
X46849501Y-14894863D01*
X46852414Y-14919990D01*
X46877756Y-14977385D01*
X46897794Y-15022765D01*
X46977235Y-15102206D01*
X47080009Y-15147585D01*
X47105135Y-15150500D01*
X47509084Y-15150499D01*
X47567275Y-15169406D01*
X47603239Y-15218906D01*
X47604711Y-15223875D01*
X47626794Y-15306290D01*
X47679518Y-15397610D01*
X47679520Y-15397613D01*
X47754087Y-15472180D01*
X47845413Y-15524907D01*
X47947273Y-15552200D01*
X48052727Y-15552200D01*
X48081099Y-15552200D01*
X48139290Y-15571107D01*
X48151103Y-15581196D01*
X48722204Y-16152297D01*
X48749981Y-16206814D01*
X48751200Y-16222301D01*
X48751200Y-26750500D01*
X48732293Y-26808691D01*
X48682793Y-26844655D01*
X48652200Y-26849500D01*
X47105139Y-26849500D01*
X47105136Y-26849501D01*
X47080009Y-26852414D01*
X46977235Y-26897794D01*
X46897794Y-26977235D01*
X46852414Y-27080011D01*
X46849500Y-27105130D01*
X46849500Y-28894860D01*
X46849501Y-28894863D01*
X46852414Y-28919990D01*
X46877756Y-28977385D01*
X46897794Y-29022765D01*
X46977235Y-29102206D01*
X47080009Y-29147585D01*
X47105135Y-29150500D01*
X48584099Y-29150499D01*
X48642290Y-29169406D01*
X48678254Y-29218906D01*
X48678254Y-29280092D01*
X48654103Y-29319503D01*
X48528448Y-29445158D01*
X48473931Y-29472935D01*
X48427852Y-29469309D01*
X48269406Y-29417828D01*
X48090549Y-29389500D01*
X48090546Y-29389500D01*
X47909454Y-29389500D01*
X47909451Y-29389500D01*
X47730593Y-29417828D01*
X47558362Y-29473788D01*
X47397008Y-29556002D01*
X47323752Y-29609225D01*
X47250499Y-29662447D01*
X47122447Y-29790499D01*
X47069225Y-29863752D01*
X47016002Y-29937008D01*
X46933788Y-30098362D01*
X46877828Y-30270593D01*
X46849500Y-30449450D01*
X46849500Y-30630549D01*
X46877828Y-30809406D01*
X46925801Y-30957056D01*
X46933789Y-30981639D01*
X47016004Y-31142994D01*
X47122447Y-31289501D01*
X47250499Y-31417553D01*
X47397006Y-31523996D01*
X47558361Y-31606211D01*
X47730591Y-31662171D01*
X47802136Y-31673502D01*
X47909451Y-31690500D01*
X47909454Y-31690500D01*
X48090549Y-31690500D01*
X48179977Y-31676335D01*
X48269409Y-31662171D01*
X48441639Y-31606211D01*
X48602994Y-31523996D01*
X48749501Y-31417553D01*
X48877553Y-31289501D01*
X48983996Y-31142994D01*
X49066211Y-30981639D01*
X49122171Y-30809409D01*
X49150500Y-30630546D01*
X49150500Y-30449454D01*
X49150500Y-30449450D01*
X49122171Y-30270593D01*
X49122171Y-30270591D01*
X49070690Y-30112145D01*
X49070691Y-30050960D01*
X49094839Y-30011551D01*
X49397610Y-29708781D01*
X49397613Y-29708780D01*
X49472180Y-29634213D01*
X49517334Y-29556004D01*
X49524907Y-29542888D01*
X49552201Y-29441027D01*
X49552201Y-29335573D01*
X49552201Y-29329511D01*
X49552200Y-29329493D01*
X49552200Y-15962674D01*
X49552200Y-15962673D01*
X49524907Y-15860813D01*
X49524907Y-15860812D01*
X49524907Y-15860811D01*
X49472183Y-15769491D01*
X49472182Y-15769490D01*
X49472181Y-15769489D01*
X49472180Y-15769487D01*
X48973823Y-15271130D01*
X48946046Y-15216613D01*
X48955617Y-15156181D01*
X48998882Y-15112916D01*
X49003803Y-15110578D01*
X49022765Y-15102206D01*
X49102206Y-15022765D01*
X49147585Y-14919991D01*
X49150500Y-14894865D01*
X49150499Y-13105136D01*
X49147585Y-13080009D01*
X49102206Y-12977235D01*
X49022765Y-12897794D01*
X48919991Y-12852415D01*
X48919990Y-12852414D01*
X48919988Y-12852414D01*
X48894868Y-12849500D01*
X47105139Y-12849500D01*
X47105136Y-12849501D01*
X47080009Y-12852414D01*
X46977235Y-12897794D01*
X46897794Y-12977235D01*
X46852414Y-13080011D01*
X46849500Y-13105130D01*
X43918700Y-13105130D01*
X43918700Y-11701674D01*
X43918700Y-11701673D01*
X43891407Y-11599813D01*
X43891407Y-11599812D01*
X43891407Y-11599811D01*
X43838683Y-11508491D01*
X43838682Y-11508490D01*
X43838681Y-11508489D01*
X43838680Y-11508487D01*
X39613496Y-7283303D01*
X39585719Y-7228786D01*
X39584500Y-7213299D01*
X39584500Y-7141144D01*
X39584500Y-7141143D01*
X39543577Y-6988416D01*
X39464520Y-6851484D01*
X39352716Y-6739680D01*
X39215784Y-6660623D01*
X39063057Y-6619700D01*
X38904943Y-6619700D01*
X38752216Y-6660623D01*
X38615284Y-6739680D01*
X38503480Y-6851484D01*
X38424423Y-6988416D01*
X38383500Y-7141143D01*
X31397100Y-7141143D01*
X31397100Y-6480443D01*
X31416007Y-6422252D01*
X31426090Y-6410445D01*
X31477120Y-6359416D01*
X31556177Y-6222484D01*
X31597100Y-6069757D01*
X31597100Y-5911643D01*
X31556177Y-5758916D01*
X31477120Y-5621984D01*
X31365316Y-5510180D01*
X31228384Y-5431123D01*
X31075657Y-5390200D01*
X30917543Y-5390200D01*
X30764816Y-5431123D01*
X30627884Y-5510180D01*
X30516080Y-5621984D01*
X30437023Y-5758916D01*
X30396100Y-5911643D01*
X30396100Y-6069757D01*
X30437023Y-6222484D01*
X30516080Y-6359416D01*
X30567105Y-6410441D01*
X30594881Y-6464956D01*
X30596100Y-6480443D01*
X30596100Y-16254099D01*
X30577193Y-16312290D01*
X30567104Y-16324103D01*
X29529003Y-17362204D01*
X29474486Y-17389981D01*
X29458999Y-17391200D01*
X29386843Y-17391200D01*
X29234116Y-17432123D01*
X29097184Y-17511180D01*
X28985380Y-17622984D01*
X28906323Y-17759916D01*
X28865400Y-17912643D01*
X25633129Y-17912643D01*
X25593720Y-17844384D01*
X25481916Y-17732580D01*
X25344984Y-17653523D01*
X25192257Y-17612600D01*
X25034143Y-17612600D01*
X24881416Y-17653523D01*
X24744484Y-17732580D01*
X24632680Y-17844384D01*
X24553623Y-17981316D01*
X24512700Y-18134043D01*
X12687955Y-18134043D01*
X12699179Y-18129394D01*
X12830289Y-18041789D01*
X12941789Y-17930289D01*
X13029394Y-17799179D01*
X13089737Y-17653497D01*
X13120500Y-17498842D01*
X13120500Y-16241158D01*
X13089737Y-16086503D01*
X13038446Y-15962674D01*
X13029396Y-15940825D01*
X13029390Y-15940814D01*
X12975934Y-15860813D01*
X12941789Y-15809711D01*
X12830289Y-15698211D01*
X12778059Y-15663312D01*
X12699185Y-15610609D01*
X12699174Y-15610603D01*
X12553497Y-15550263D01*
X12398844Y-15519500D01*
X12398842Y-15519500D01*
X12241158Y-15519500D01*
X12241155Y-15519500D01*
X12086503Y-15550263D01*
X12086501Y-15550263D01*
X11940825Y-15610603D01*
X11940814Y-15610609D01*
X11809711Y-15698211D01*
X11809707Y-15698214D01*
X11698214Y-15809707D01*
X11698211Y-15809711D01*
X11610609Y-15940814D01*
X11610603Y-15940825D01*
X11550263Y-16086501D01*
X11550263Y-16086503D01*
X11519500Y-16241155D01*
X11519500Y-16976613D01*
X11500593Y-17034804D01*
X11451093Y-17070768D01*
X11389907Y-17070768D01*
X11350498Y-17046618D01*
X11243365Y-16939485D01*
X11243362Y-16939483D01*
X11243360Y-16939481D01*
X11112138Y-16863720D01*
X11112140Y-16863720D01*
X11055347Y-16848503D01*
X10965766Y-16824500D01*
X10814234Y-16824500D01*
X10724652Y-16848503D01*
X10667860Y-16863720D01*
X10536639Y-16939481D01*
X10429483Y-17046637D01*
X10396779Y-17103282D01*
X10351309Y-17144222D01*
X10290459Y-17150617D01*
X10237471Y-17120024D01*
X10215417Y-17079406D01*
X10184177Y-16962816D01*
X10105120Y-16825884D01*
X9993316Y-16714080D01*
X9856384Y-16635023D01*
X9703657Y-16594100D01*
X9592800Y-16594100D01*
X9534609Y-16575193D01*
X9498645Y-16525693D01*
X9498645Y-16464507D01*
X9522796Y-16425096D01*
X11259996Y-14687896D01*
X11314513Y-14660119D01*
X11330000Y-14658900D01*
X11402155Y-14658900D01*
X11402157Y-14658900D01*
X11554884Y-14617977D01*
X11691816Y-14538920D01*
X11803620Y-14427116D01*
X11882677Y-14290184D01*
X11923600Y-14137457D01*
X11923600Y-13979343D01*
X11882677Y-13826616D01*
X11803620Y-13689684D01*
X11691816Y-13577880D01*
X11554884Y-13498823D01*
X11402157Y-13457900D01*
X11244043Y-13457900D01*
X11091316Y-13498823D01*
X10954384Y-13577880D01*
X10842580Y-13689684D01*
X10763523Y-13826616D01*
X10722651Y-13979155D01*
X10722600Y-13979344D01*
X10722600Y-14051499D01*
X10703693Y-14109690D01*
X10693604Y-14121503D01*
X8241903Y-16573204D01*
X8187386Y-16600981D01*
X8171899Y-16602200D01*
X8099743Y-16602200D01*
X7947016Y-16643123D01*
X7810084Y-16722180D01*
X7698280Y-16833984D01*
X7619223Y-16970916D01*
X7578300Y-17123643D01*
X5614976Y-17123643D01*
X5570518Y-17046639D01*
X5570516Y-17046637D01*
X5570515Y-17046635D01*
X5463365Y-16939485D01*
X5463362Y-16939483D01*
X5463360Y-16939481D01*
X5332138Y-16863720D01*
X5332140Y-16863720D01*
X5275347Y-16848503D01*
X5185766Y-16824500D01*
X5034234Y-16824500D01*
X4944652Y-16848503D01*
X4887860Y-16863720D01*
X4756639Y-16939481D01*
X4649481Y-17046639D01*
X4573720Y-17177860D01*
X4565216Y-17209600D01*
X4534500Y-17324234D01*
X500500Y-17324234D01*
X500500Y-7150343D01*
X21462000Y-7150343D01*
X21462000Y-7308457D01*
X21502923Y-7461184D01*
X21581980Y-7598116D01*
X21633005Y-7649141D01*
X21660781Y-7703656D01*
X21662000Y-7719143D01*
X21662000Y-13410356D01*
X21643093Y-13468547D01*
X21633004Y-13480359D01*
X21581982Y-13531381D01*
X21581980Y-13531383D01*
X21581980Y-13531384D01*
X21502923Y-13668316D01*
X21462000Y-13821043D01*
X21462000Y-13979157D01*
X21502923Y-14131884D01*
X21581980Y-14268816D01*
X21693784Y-14380620D01*
X21830716Y-14459677D01*
X21983443Y-14500600D01*
X21983445Y-14500600D01*
X22141555Y-14500600D01*
X22141557Y-14500600D01*
X22294284Y-14459677D01*
X22431216Y-14380620D01*
X22543020Y-14268816D01*
X22622077Y-14131884D01*
X22663000Y-13979157D01*
X22663000Y-13821043D01*
X22622077Y-13668316D01*
X22543020Y-13531384D01*
X22543017Y-13531381D01*
X22491996Y-13480359D01*
X22464219Y-13425842D01*
X22463000Y-13410356D01*
X22463000Y-7719143D01*
X22481907Y-7660952D01*
X22491990Y-7649145D01*
X22543020Y-7598116D01*
X22622077Y-7461184D01*
X22663000Y-7308457D01*
X22663000Y-7150343D01*
X22622077Y-6997616D01*
X22543020Y-6860684D01*
X22431216Y-6748880D01*
X22294284Y-6669823D01*
X22141557Y-6628900D01*
X21983443Y-6628900D01*
X21830716Y-6669823D01*
X21693784Y-6748880D01*
X21581980Y-6860684D01*
X21502923Y-6997616D01*
X21462000Y-7150343D01*
X500500Y-7150343D01*
X500500Y-599500D01*
X519407Y-541309D01*
X568907Y-505345D01*
X599500Y-500500D01*
X54400500Y-500500D01*
X54458691Y-519407D01*
G37*
%TD.AperFunction*%
%TD*%
M02*
