%TF.GenerationSoftware,KiCad,Pcbnew,10.0.3*%
%TF.CreationDate,2026-09-02T19:35:32+06:00*%
%TF.ProjectId,usbc_power_hub,75736263-5f70-46f7-9765-725f6875622e,rev?*%
%TF.SameCoordinates,Original*%
%TF.FileFunction,Paste,Top*%
%TF.FilePolarity,Positive*%
%FSLAX46Y46*%
G04 Gerber Fmt 4.6, Leading zero omitted, Abs format (unit mm)*
G04 Created by KiCad (PCBNEW 10.0.3) date 2026-09-02 19:35:32*
%MOMM*%
%LPD*%
G01*
G04 APERTURE LIST*
G04 Aperture macros list*
%AMRoundRect*
0 Rectangle with rounded corners*
0 $1 Rounding radius*
0 $2 $3 $4 $5 $6 $7 $8 $9 X,Y pos of 4 corners*
0 Add a 4 corners polygon primitive as box body*
4,1,4,$2,$3,$4,$5,$6,$7,$8,$9,$2,$3,0*
0 Add four circle primitives for the rounded corners*
1,1,$1+$1,$2,$3*
1,1,$1+$1,$4,$5*
1,1,$1+$1,$6,$7*
1,1,$1+$1,$8,$9*
0 Add four rect primitives between the rounded corners*
20,1,$1+$1,$2,$3,$4,$5,0*
20,1,$1+$1,$4,$5,$6,$7,0*
20,1,$1+$1,$6,$7,$8,$9,0*
20,1,$1+$1,$8,$9,$2,$3,0*%
G04 Aperture macros list end*
%ADD10RoundRect,0.250000X0.475000X-0.250000X0.475000X0.250000X-0.475000X0.250000X-0.475000X-0.250000X0*%
%ADD11RoundRect,0.250000X-0.262500X-0.450000X0.262500X-0.450000X0.262500X0.450000X-0.262500X0.450000X0*%
%ADD12RoundRect,0.243750X-0.243750X-0.456250X0.243750X-0.456250X0.243750X0.456250X-0.243750X0.456250X0*%
%ADD13R,0.600000X1.200000*%
%ADD14R,3.300000X2.400000*%
%ADD15RoundRect,0.150000X-0.150000X-0.575000X0.150000X-0.575000X0.150000X0.575000X-0.150000X0.575000X0*%
%ADD16RoundRect,0.075000X-0.075000X-0.650000X0.075000X-0.650000X0.075000X0.650000X-0.075000X0.650000X0*%
%ADD17R,2.500000X1.100000*%
%ADD18R,2.340000X3.600000*%
G04 APERTURE END LIST*
D10*
%TO.C,C1*%
X20000000Y-14950000D03*
X20000000Y-13050000D03*
%TD*%
D11*
%TO.C,R4*%
X17087500Y-6000000D03*
X18912500Y-6000000D03*
%TD*%
%TO.C,R5*%
X28087500Y-6000000D03*
X29912500Y-6000000D03*
%TD*%
%TO.C,R2*%
X14087500Y-27000000D03*
X15912500Y-27000000D03*
%TD*%
%TO.C,R1*%
X14087500Y-13000000D03*
X15912500Y-13000000D03*
%TD*%
D10*
%TO.C,C2*%
X32000000Y-14950000D03*
X32000000Y-13050000D03*
%TD*%
D11*
%TO.C,R6*%
X39087500Y-6000000D03*
X40912500Y-6000000D03*
%TD*%
D12*
%TO.C,D1*%
X22062500Y-6000000D03*
X23937500Y-6000000D03*
%TD*%
D11*
%TO.C,R3*%
X25087500Y-28000000D03*
X26912500Y-28000000D03*
%TD*%
D13*
%TO.C,U1*%
X24090000Y-22910000D03*
X25370000Y-22910000D03*
X26640000Y-22910000D03*
X27910000Y-22910000D03*
X27910000Y-17090000D03*
X26640000Y-17090000D03*
X25370000Y-17090000D03*
X24090000Y-17090000D03*
D14*
X26000000Y-20000000D03*
%TD*%
D12*
%TO.C,D3*%
X44062500Y-6000000D03*
X45937500Y-6000000D03*
%TD*%
%TO.C,D2*%
X33062500Y-6000000D03*
X34937500Y-6000000D03*
%TD*%
D15*
%TO.C,J1*%
X4750000Y-15955000D03*
X5550000Y-15955000D03*
D16*
X6750000Y-15955000D03*
X7750000Y-15955000D03*
X8250000Y-15955000D03*
X9250000Y-15955000D03*
D15*
X10450000Y-15955000D03*
X11250000Y-15955000D03*
X11250000Y-15955000D03*
X10450000Y-15955000D03*
D16*
X9750000Y-15955000D03*
X8750000Y-15955000D03*
X7250000Y-15955000D03*
X6250000Y-15955000D03*
D15*
X5550000Y-15955000D03*
X4750000Y-15955000D03*
%TD*%
D10*
%TO.C,C3*%
X38000000Y-30950000D03*
X38000000Y-29050000D03*
%TD*%
D17*
%TO.C,U2*%
X40970000Y-22300000D03*
X40970000Y-20000000D03*
X40970000Y-17700000D03*
D18*
X35030000Y-20000000D03*
%TD*%
M02*
