M48
; DRILL file KiCad 10.0.3 date 2026-09-02T19:35:33
; FORMAT={-:-/ absolute / metric / decimal}
; #@! TF.CreationDate,2026-09-02T19:35:33+06:00
; #@! TF.GenerationSoftware,Kicad,Pcbnew,10.0.3
; #@! TF.FileFunction,Plated,1,2,PTH
FMAT,2
METRIC
; #@! TA.AperFunction,Plated,PTH,ViaDrill
T1C0.300
; #@! TA.AperFunction,Plated,PTH,ComponentDrill
T2C0.600
; #@! TA.AperFunction,Plated,PTH,ComponentDrill
T3C1.000
%
G90
G05
T1
X8.179Y-17.203
X9.625Y-17.195
X10.069Y-27.178
X11.323Y-14.058
X22.062Y-7.229
X22.062Y-13.9
X25.113Y-18.213
X27.91Y-21.804
X29.466Y-17.992
X30.997Y-5.991
X38.984Y-7.22
X43.518Y-31.447
T3
X48.0Y-14.0
X48.0Y-16.54
X48.0Y-28.0
X48.0Y-30.54
X48.0Y-33.08
X48.0Y-35.62
T2
X3.68Y-16.32G85X3.68Y-17.42
G05
X3.68Y-20.75G85X3.68Y-21.35
G05
X12.32Y-16.32G85X12.32Y-17.42
G05
X12.32Y-20.75G85X12.32Y-21.35
G05
M30
