%TF.GenerationSoftware,KiCad,Pcbnew,10.0.3*%
%TF.CreationDate,2026-09-02T19:35:32+06:00*%
%TF.ProjectId,usbc_power_hub,75736263-5f70-46f7-9765-725f6875622e,rev?*%
%TF.SameCoordinates,Original*%
%TF.FileFunction,Legend,Top*%
%TF.FilePolarity,Positive*%
%FSLAX46Y46*%
G04 Gerber Fmt 4.6, Leading zero omitted, Abs format (unit mm)*
G04 Created by KiCad (PCBNEW 10.0.3) date 2026-09-02 19:35:32*
%MOMM*%
%LPD*%
G01*
G04 APERTURE LIST*
G04 Aperture macros list*
%AMRoundRect*
0 Rectangle with rounded corners*
0 $1 Rounding radius*
0 $2 $3 $4 $5 $6 $7 $8 $9 X,Y pos of 4 corners*
0 Add a 4 corners polygon primitive as box body*
4,1,4,$2,$3,$4,$5,$6,$7,$8,$9,$2,$3,0*
0 Add four circle primitives for the rounded corners*
1,1,$1+$1,$2,$3*
1,1,$1+$1,$4,$5*
1,1,$1+$1,$6,$7*
1,1,$1+$1,$8,$9*
0 Add four rect primitives between the rounded corners*
20,1,$1+$1,$2,$3,$4,$5,0*
20,1,$1+$1,$4,$5,$6,$7,0*
20,1,$1+$1,$6,$7,$8,$9,0*
20,1,$1+$1,$8,$9,$2,$3,0*%
G04 Aperture macros list end*
%ADD10C,0.150000*%
%ADD11C,0.120000*%
%ADD12C,0.250000*%
%ADD13C,0.060000*%
%ADD14RoundRect,0.250000X0.475000X-0.250000X0.475000X0.250000X-0.475000X0.250000X-0.475000X-0.250000X0*%
%ADD15RoundRect,0.250000X-0.262500X-0.450000X0.262500X-0.450000X0.262500X0.450000X-0.262500X0.450000X0*%
%ADD16RoundRect,0.243750X-0.243750X-0.456250X0.243750X-0.456250X0.243750X0.456250X-0.243750X0.456250X0*%
%ADD17R,1.700000X1.700000*%
%ADD18C,1.700000*%
%ADD19R,0.600000X1.200000*%
%ADD20R,3.300000X2.400000*%
%ADD21C,0.650000*%
%ADD22RoundRect,0.150000X-0.150000X-0.575000X0.150000X-0.575000X0.150000X0.575000X-0.150000X0.575000X0*%
%ADD23RoundRect,0.075000X-0.075000X-0.650000X0.075000X-0.650000X0.075000X0.650000X-0.075000X0.650000X0*%
%ADD24O,1.000000X2.100000*%
%ADD25O,1.000000X1.600000*%
%ADD26R,2.500000X1.100000*%
%ADD27R,2.340000X3.600000*%
G04 APERTURE END LIST*
D10*
X18679580Y-14166666D02*
X18727200Y-14214285D01*
X18727200Y-14214285D02*
X18774819Y-14357142D01*
X18774819Y-14357142D02*
X18774819Y-14452380D01*
X18774819Y-14452380D02*
X18727200Y-14595237D01*
X18727200Y-14595237D02*
X18631961Y-14690475D01*
X18631961Y-14690475D02*
X18536723Y-14738094D01*
X18536723Y-14738094D02*
X18346247Y-14785713D01*
X18346247Y-14785713D02*
X18203390Y-14785713D01*
X18203390Y-14785713D02*
X18012914Y-14738094D01*
X18012914Y-14738094D02*
X17917676Y-14690475D01*
X17917676Y-14690475D02*
X17822438Y-14595237D01*
X17822438Y-14595237D02*
X17774819Y-14452380D01*
X17774819Y-14452380D02*
X17774819Y-14357142D01*
X17774819Y-14357142D02*
X17822438Y-14214285D01*
X17822438Y-14214285D02*
X17870057Y-14166666D01*
X18774819Y-13214285D02*
X18774819Y-13785713D01*
X18774819Y-13499999D02*
X17774819Y-13499999D01*
X17774819Y-13499999D02*
X17917676Y-13595237D01*
X17917676Y-13595237D02*
X18012914Y-13690475D01*
X18012914Y-13690475D02*
X18060533Y-13785713D01*
X17833333Y-4804819D02*
X17500000Y-4328628D01*
X17261905Y-4804819D02*
X17261905Y-3804819D01*
X17261905Y-3804819D02*
X17642857Y-3804819D01*
X17642857Y-3804819D02*
X17738095Y-3852438D01*
X17738095Y-3852438D02*
X17785714Y-3900057D01*
X17785714Y-3900057D02*
X17833333Y-3995295D01*
X17833333Y-3995295D02*
X17833333Y-4138152D01*
X17833333Y-4138152D02*
X17785714Y-4233390D01*
X17785714Y-4233390D02*
X17738095Y-4281009D01*
X17738095Y-4281009D02*
X17642857Y-4328628D01*
X17642857Y-4328628D02*
X17261905Y-4328628D01*
X18690476Y-4138152D02*
X18690476Y-4804819D01*
X18452381Y-3757200D02*
X18214286Y-4471485D01*
X18214286Y-4471485D02*
X18833333Y-4471485D01*
X28833333Y-4804819D02*
X28500000Y-4328628D01*
X28261905Y-4804819D02*
X28261905Y-3804819D01*
X28261905Y-3804819D02*
X28642857Y-3804819D01*
X28642857Y-3804819D02*
X28738095Y-3852438D01*
X28738095Y-3852438D02*
X28785714Y-3900057D01*
X28785714Y-3900057D02*
X28833333Y-3995295D01*
X28833333Y-3995295D02*
X28833333Y-4138152D01*
X28833333Y-4138152D02*
X28785714Y-4233390D01*
X28785714Y-4233390D02*
X28738095Y-4281009D01*
X28738095Y-4281009D02*
X28642857Y-4328628D01*
X28642857Y-4328628D02*
X28261905Y-4328628D01*
X29738095Y-3804819D02*
X29261905Y-3804819D01*
X29261905Y-3804819D02*
X29214286Y-4281009D01*
X29214286Y-4281009D02*
X29261905Y-4233390D01*
X29261905Y-4233390D02*
X29357143Y-4185771D01*
X29357143Y-4185771D02*
X29595238Y-4185771D01*
X29595238Y-4185771D02*
X29690476Y-4233390D01*
X29690476Y-4233390D02*
X29738095Y-4281009D01*
X29738095Y-4281009D02*
X29785714Y-4376247D01*
X29785714Y-4376247D02*
X29785714Y-4614342D01*
X29785714Y-4614342D02*
X29738095Y-4709580D01*
X29738095Y-4709580D02*
X29690476Y-4757200D01*
X29690476Y-4757200D02*
X29595238Y-4804819D01*
X29595238Y-4804819D02*
X29357143Y-4804819D01*
X29357143Y-4804819D02*
X29261905Y-4757200D01*
X29261905Y-4757200D02*
X29214286Y-4709580D01*
X14833333Y-25804819D02*
X14500000Y-25328628D01*
X14261905Y-25804819D02*
X14261905Y-24804819D01*
X14261905Y-24804819D02*
X14642857Y-24804819D01*
X14642857Y-24804819D02*
X14738095Y-24852438D01*
X14738095Y-24852438D02*
X14785714Y-24900057D01*
X14785714Y-24900057D02*
X14833333Y-24995295D01*
X14833333Y-24995295D02*
X14833333Y-25138152D01*
X14833333Y-25138152D02*
X14785714Y-25233390D01*
X14785714Y-25233390D02*
X14738095Y-25281009D01*
X14738095Y-25281009D02*
X14642857Y-25328628D01*
X14642857Y-25328628D02*
X14261905Y-25328628D01*
X15214286Y-24900057D02*
X15261905Y-24852438D01*
X15261905Y-24852438D02*
X15357143Y-24804819D01*
X15357143Y-24804819D02*
X15595238Y-24804819D01*
X15595238Y-24804819D02*
X15690476Y-24852438D01*
X15690476Y-24852438D02*
X15738095Y-24900057D01*
X15738095Y-24900057D02*
X15785714Y-24995295D01*
X15785714Y-24995295D02*
X15785714Y-25090533D01*
X15785714Y-25090533D02*
X15738095Y-25233390D01*
X15738095Y-25233390D02*
X15166667Y-25804819D01*
X15166667Y-25804819D02*
X15785714Y-25804819D01*
X14833333Y-11804819D02*
X14500000Y-11328628D01*
X14261905Y-11804819D02*
X14261905Y-10804819D01*
X14261905Y-10804819D02*
X14642857Y-10804819D01*
X14642857Y-10804819D02*
X14738095Y-10852438D01*
X14738095Y-10852438D02*
X14785714Y-10900057D01*
X14785714Y-10900057D02*
X14833333Y-10995295D01*
X14833333Y-10995295D02*
X14833333Y-11138152D01*
X14833333Y-11138152D02*
X14785714Y-11233390D01*
X14785714Y-11233390D02*
X14738095Y-11281009D01*
X14738095Y-11281009D02*
X14642857Y-11328628D01*
X14642857Y-11328628D02*
X14261905Y-11328628D01*
X15785714Y-11804819D02*
X15214286Y-11804819D01*
X15500000Y-11804819D02*
X15500000Y-10804819D01*
X15500000Y-10804819D02*
X15404762Y-10947676D01*
X15404762Y-10947676D02*
X15309524Y-11042914D01*
X15309524Y-11042914D02*
X15214286Y-11090533D01*
X30679580Y-14166666D02*
X30727200Y-14214285D01*
X30727200Y-14214285D02*
X30774819Y-14357142D01*
X30774819Y-14357142D02*
X30774819Y-14452380D01*
X30774819Y-14452380D02*
X30727200Y-14595237D01*
X30727200Y-14595237D02*
X30631961Y-14690475D01*
X30631961Y-14690475D02*
X30536723Y-14738094D01*
X30536723Y-14738094D02*
X30346247Y-14785713D01*
X30346247Y-14785713D02*
X30203390Y-14785713D01*
X30203390Y-14785713D02*
X30012914Y-14738094D01*
X30012914Y-14738094D02*
X29917676Y-14690475D01*
X29917676Y-14690475D02*
X29822438Y-14595237D01*
X29822438Y-14595237D02*
X29774819Y-14452380D01*
X29774819Y-14452380D02*
X29774819Y-14357142D01*
X29774819Y-14357142D02*
X29822438Y-14214285D01*
X29822438Y-14214285D02*
X29870057Y-14166666D01*
X29870057Y-13785713D02*
X29822438Y-13738094D01*
X29822438Y-13738094D02*
X29774819Y-13642856D01*
X29774819Y-13642856D02*
X29774819Y-13404761D01*
X29774819Y-13404761D02*
X29822438Y-13309523D01*
X29822438Y-13309523D02*
X29870057Y-13261904D01*
X29870057Y-13261904D02*
X29965295Y-13214285D01*
X29965295Y-13214285D02*
X30060533Y-13214285D01*
X30060533Y-13214285D02*
X30203390Y-13261904D01*
X30203390Y-13261904D02*
X30774819Y-13833332D01*
X30774819Y-13833332D02*
X30774819Y-13214285D01*
X39833333Y-4804819D02*
X39500000Y-4328628D01*
X39261905Y-4804819D02*
X39261905Y-3804819D01*
X39261905Y-3804819D02*
X39642857Y-3804819D01*
X39642857Y-3804819D02*
X39738095Y-3852438D01*
X39738095Y-3852438D02*
X39785714Y-3900057D01*
X39785714Y-3900057D02*
X39833333Y-3995295D01*
X39833333Y-3995295D02*
X39833333Y-4138152D01*
X39833333Y-4138152D02*
X39785714Y-4233390D01*
X39785714Y-4233390D02*
X39738095Y-4281009D01*
X39738095Y-4281009D02*
X39642857Y-4328628D01*
X39642857Y-4328628D02*
X39261905Y-4328628D01*
X40690476Y-3804819D02*
X40500000Y-3804819D01*
X40500000Y-3804819D02*
X40404762Y-3852438D01*
X40404762Y-3852438D02*
X40357143Y-3900057D01*
X40357143Y-3900057D02*
X40261905Y-4042914D01*
X40261905Y-4042914D02*
X40214286Y-4233390D01*
X40214286Y-4233390D02*
X40214286Y-4614342D01*
X40214286Y-4614342D02*
X40261905Y-4709580D01*
X40261905Y-4709580D02*
X40309524Y-4757200D01*
X40309524Y-4757200D02*
X40404762Y-4804819D01*
X40404762Y-4804819D02*
X40595238Y-4804819D01*
X40595238Y-4804819D02*
X40690476Y-4757200D01*
X40690476Y-4757200D02*
X40738095Y-4709580D01*
X40738095Y-4709580D02*
X40785714Y-4614342D01*
X40785714Y-4614342D02*
X40785714Y-4376247D01*
X40785714Y-4376247D02*
X40738095Y-4281009D01*
X40738095Y-4281009D02*
X40690476Y-4233390D01*
X40690476Y-4233390D02*
X40595238Y-4185771D01*
X40595238Y-4185771D02*
X40404762Y-4185771D01*
X40404762Y-4185771D02*
X40309524Y-4233390D01*
X40309524Y-4233390D02*
X40261905Y-4281009D01*
X40261905Y-4281009D02*
X40214286Y-4376247D01*
X22261905Y-4804819D02*
X22261905Y-3804819D01*
X22261905Y-3804819D02*
X22500000Y-3804819D01*
X22500000Y-3804819D02*
X22642857Y-3852438D01*
X22642857Y-3852438D02*
X22738095Y-3947676D01*
X22738095Y-3947676D02*
X22785714Y-4042914D01*
X22785714Y-4042914D02*
X22833333Y-4233390D01*
X22833333Y-4233390D02*
X22833333Y-4376247D01*
X22833333Y-4376247D02*
X22785714Y-4566723D01*
X22785714Y-4566723D02*
X22738095Y-4661961D01*
X22738095Y-4661961D02*
X22642857Y-4757200D01*
X22642857Y-4757200D02*
X22500000Y-4804819D01*
X22500000Y-4804819D02*
X22261905Y-4804819D01*
X23785714Y-4804819D02*
X23214286Y-4804819D01*
X23500000Y-4804819D02*
X23500000Y-3804819D01*
X23500000Y-3804819D02*
X23404762Y-3947676D01*
X23404762Y-3947676D02*
X23309524Y-4042914D01*
X23309524Y-4042914D02*
X23214286Y-4090533D01*
X25833333Y-26804819D02*
X25500000Y-26328628D01*
X25261905Y-26804819D02*
X25261905Y-25804819D01*
X25261905Y-25804819D02*
X25642857Y-25804819D01*
X25642857Y-25804819D02*
X25738095Y-25852438D01*
X25738095Y-25852438D02*
X25785714Y-25900057D01*
X25785714Y-25900057D02*
X25833333Y-25995295D01*
X25833333Y-25995295D02*
X25833333Y-26138152D01*
X25833333Y-26138152D02*
X25785714Y-26233390D01*
X25785714Y-26233390D02*
X25738095Y-26281009D01*
X25738095Y-26281009D02*
X25642857Y-26328628D01*
X25642857Y-26328628D02*
X25261905Y-26328628D01*
X26166667Y-25804819D02*
X26785714Y-25804819D01*
X26785714Y-25804819D02*
X26452381Y-26185771D01*
X26452381Y-26185771D02*
X26595238Y-26185771D01*
X26595238Y-26185771D02*
X26690476Y-26233390D01*
X26690476Y-26233390D02*
X26738095Y-26281009D01*
X26738095Y-26281009D02*
X26785714Y-26376247D01*
X26785714Y-26376247D02*
X26785714Y-26614342D01*
X26785714Y-26614342D02*
X26738095Y-26709580D01*
X26738095Y-26709580D02*
X26690476Y-26757200D01*
X26690476Y-26757200D02*
X26595238Y-26804819D01*
X26595238Y-26804819D02*
X26309524Y-26804819D01*
X26309524Y-26804819D02*
X26214286Y-26757200D01*
X26214286Y-26757200D02*
X26166667Y-26709580D01*
X47666666Y-11074819D02*
X47666666Y-11789104D01*
X47666666Y-11789104D02*
X47619047Y-11931961D01*
X47619047Y-11931961D02*
X47523809Y-12027200D01*
X47523809Y-12027200D02*
X47380952Y-12074819D01*
X47380952Y-12074819D02*
X47285714Y-12074819D01*
X48095238Y-11170057D02*
X48142857Y-11122438D01*
X48142857Y-11122438D02*
X48238095Y-11074819D01*
X48238095Y-11074819D02*
X48476190Y-11074819D01*
X48476190Y-11074819D02*
X48571428Y-11122438D01*
X48571428Y-11122438D02*
X48619047Y-11170057D01*
X48619047Y-11170057D02*
X48666666Y-11265295D01*
X48666666Y-11265295D02*
X48666666Y-11360533D01*
X48666666Y-11360533D02*
X48619047Y-11503390D01*
X48619047Y-11503390D02*
X48047619Y-12074819D01*
X48047619Y-12074819D02*
X48666666Y-12074819D01*
X25238095Y-12546819D02*
X25238095Y-13356342D01*
X25238095Y-13356342D02*
X25285714Y-13451580D01*
X25285714Y-13451580D02*
X25333333Y-13499200D01*
X25333333Y-13499200D02*
X25428571Y-13546819D01*
X25428571Y-13546819D02*
X25619047Y-13546819D01*
X25619047Y-13546819D02*
X25714285Y-13499200D01*
X25714285Y-13499200D02*
X25761904Y-13451580D01*
X25761904Y-13451580D02*
X25809523Y-13356342D01*
X25809523Y-13356342D02*
X25809523Y-12546819D01*
X26809523Y-13546819D02*
X26238095Y-13546819D01*
X26523809Y-13546819D02*
X26523809Y-12546819D01*
X26523809Y-12546819D02*
X26428571Y-12689676D01*
X26428571Y-12689676D02*
X26333333Y-12784914D01*
X26333333Y-12784914D02*
X26238095Y-12832533D01*
X44261905Y-4804819D02*
X44261905Y-3804819D01*
X44261905Y-3804819D02*
X44500000Y-3804819D01*
X44500000Y-3804819D02*
X44642857Y-3852438D01*
X44642857Y-3852438D02*
X44738095Y-3947676D01*
X44738095Y-3947676D02*
X44785714Y-4042914D01*
X44785714Y-4042914D02*
X44833333Y-4233390D01*
X44833333Y-4233390D02*
X44833333Y-4376247D01*
X44833333Y-4376247D02*
X44785714Y-4566723D01*
X44785714Y-4566723D02*
X44738095Y-4661961D01*
X44738095Y-4661961D02*
X44642857Y-4757200D01*
X44642857Y-4757200D02*
X44500000Y-4804819D01*
X44500000Y-4804819D02*
X44261905Y-4804819D01*
X45166667Y-3804819D02*
X45785714Y-3804819D01*
X45785714Y-3804819D02*
X45452381Y-4185771D01*
X45452381Y-4185771D02*
X45595238Y-4185771D01*
X45595238Y-4185771D02*
X45690476Y-4233390D01*
X45690476Y-4233390D02*
X45738095Y-4281009D01*
X45738095Y-4281009D02*
X45785714Y-4376247D01*
X45785714Y-4376247D02*
X45785714Y-4614342D01*
X45785714Y-4614342D02*
X45738095Y-4709580D01*
X45738095Y-4709580D02*
X45690476Y-4757200D01*
X45690476Y-4757200D02*
X45595238Y-4804819D01*
X45595238Y-4804819D02*
X45309524Y-4804819D01*
X45309524Y-4804819D02*
X45214286Y-4757200D01*
X45214286Y-4757200D02*
X45166667Y-4709580D01*
X33261905Y-4804819D02*
X33261905Y-3804819D01*
X33261905Y-3804819D02*
X33500000Y-3804819D01*
X33500000Y-3804819D02*
X33642857Y-3852438D01*
X33642857Y-3852438D02*
X33738095Y-3947676D01*
X33738095Y-3947676D02*
X33785714Y-4042914D01*
X33785714Y-4042914D02*
X33833333Y-4233390D01*
X33833333Y-4233390D02*
X33833333Y-4376247D01*
X33833333Y-4376247D02*
X33785714Y-4566723D01*
X33785714Y-4566723D02*
X33738095Y-4661961D01*
X33738095Y-4661961D02*
X33642857Y-4757200D01*
X33642857Y-4757200D02*
X33500000Y-4804819D01*
X33500000Y-4804819D02*
X33261905Y-4804819D01*
X34214286Y-3900057D02*
X34261905Y-3852438D01*
X34261905Y-3852438D02*
X34357143Y-3804819D01*
X34357143Y-3804819D02*
X34595238Y-3804819D01*
X34595238Y-3804819D02*
X34690476Y-3852438D01*
X34690476Y-3852438D02*
X34738095Y-3900057D01*
X34738095Y-3900057D02*
X34785714Y-3995295D01*
X34785714Y-3995295D02*
X34785714Y-4090533D01*
X34785714Y-4090533D02*
X34738095Y-4233390D01*
X34738095Y-4233390D02*
X34166667Y-4804819D01*
X34166667Y-4804819D02*
X34785714Y-4804819D01*
X7666666Y-13809819D02*
X7666666Y-14524104D01*
X7666666Y-14524104D02*
X7619047Y-14666961D01*
X7619047Y-14666961D02*
X7523809Y-14762200D01*
X7523809Y-14762200D02*
X7380952Y-14809819D01*
X7380952Y-14809819D02*
X7285714Y-14809819D01*
X8666666Y-14809819D02*
X8095238Y-14809819D01*
X8380952Y-14809819D02*
X8380952Y-13809819D01*
X8380952Y-13809819D02*
X8285714Y-13952676D01*
X8285714Y-13952676D02*
X8190476Y-14047914D01*
X8190476Y-14047914D02*
X8095238Y-14095533D01*
X36679580Y-30166666D02*
X36727200Y-30214285D01*
X36727200Y-30214285D02*
X36774819Y-30357142D01*
X36774819Y-30357142D02*
X36774819Y-30452380D01*
X36774819Y-30452380D02*
X36727200Y-30595237D01*
X36727200Y-30595237D02*
X36631961Y-30690475D01*
X36631961Y-30690475D02*
X36536723Y-30738094D01*
X36536723Y-30738094D02*
X36346247Y-30785713D01*
X36346247Y-30785713D02*
X36203390Y-30785713D01*
X36203390Y-30785713D02*
X36012914Y-30738094D01*
X36012914Y-30738094D02*
X35917676Y-30690475D01*
X35917676Y-30690475D02*
X35822438Y-30595237D01*
X35822438Y-30595237D02*
X35774819Y-30452380D01*
X35774819Y-30452380D02*
X35774819Y-30357142D01*
X35774819Y-30357142D02*
X35822438Y-30214285D01*
X35822438Y-30214285D02*
X35870057Y-30166666D01*
X35774819Y-29833332D02*
X35774819Y-29214285D01*
X35774819Y-29214285D02*
X36155771Y-29547618D01*
X36155771Y-29547618D02*
X36155771Y-29404761D01*
X36155771Y-29404761D02*
X36203390Y-29309523D01*
X36203390Y-29309523D02*
X36251009Y-29261904D01*
X36251009Y-29261904D02*
X36346247Y-29214285D01*
X36346247Y-29214285D02*
X36584342Y-29214285D01*
X36584342Y-29214285D02*
X36679580Y-29261904D01*
X36679580Y-29261904D02*
X36727200Y-29309523D01*
X36727200Y-29309523D02*
X36774819Y-29404761D01*
X36774819Y-29404761D02*
X36774819Y-29690475D01*
X36774819Y-29690475D02*
X36727200Y-29785713D01*
X36727200Y-29785713D02*
X36679580Y-29833332D01*
X47666666Y-25074819D02*
X47666666Y-25789104D01*
X47666666Y-25789104D02*
X47619047Y-25931961D01*
X47619047Y-25931961D02*
X47523809Y-26027200D01*
X47523809Y-26027200D02*
X47380952Y-26074819D01*
X47380952Y-26074819D02*
X47285714Y-26074819D01*
X48047619Y-25074819D02*
X48666666Y-25074819D01*
X48666666Y-25074819D02*
X48333333Y-25455771D01*
X48333333Y-25455771D02*
X48476190Y-25455771D01*
X48476190Y-25455771D02*
X48571428Y-25503390D01*
X48571428Y-25503390D02*
X48619047Y-25551009D01*
X48619047Y-25551009D02*
X48666666Y-25646247D01*
X48666666Y-25646247D02*
X48666666Y-25884342D01*
X48666666Y-25884342D02*
X48619047Y-25979580D01*
X48619047Y-25979580D02*
X48571428Y-26027200D01*
X48571428Y-26027200D02*
X48476190Y-26074819D01*
X48476190Y-26074819D02*
X48190476Y-26074819D01*
X48190476Y-26074819D02*
X48095238Y-26027200D01*
X48095238Y-26027200D02*
X48047619Y-25979580D01*
X37238095Y-13154819D02*
X37238095Y-13964342D01*
X37238095Y-13964342D02*
X37285714Y-14059580D01*
X37285714Y-14059580D02*
X37333333Y-14107200D01*
X37333333Y-14107200D02*
X37428571Y-14154819D01*
X37428571Y-14154819D02*
X37619047Y-14154819D01*
X37619047Y-14154819D02*
X37714285Y-14107200D01*
X37714285Y-14107200D02*
X37761904Y-14059580D01*
X37761904Y-14059580D02*
X37809523Y-13964342D01*
X37809523Y-13964342D02*
X37809523Y-13154819D01*
X38238095Y-13250057D02*
X38285714Y-13202438D01*
X38285714Y-13202438D02*
X38380952Y-13154819D01*
X38380952Y-13154819D02*
X38619047Y-13154819D01*
X38619047Y-13154819D02*
X38714285Y-13202438D01*
X38714285Y-13202438D02*
X38761904Y-13250057D01*
X38761904Y-13250057D02*
X38809523Y-13345295D01*
X38809523Y-13345295D02*
X38809523Y-13440533D01*
X38809523Y-13440533D02*
X38761904Y-13583390D01*
X38761904Y-13583390D02*
X38190476Y-14154819D01*
X38190476Y-14154819D02*
X38809523Y-14154819D01*
%TO.C,C1*%
D11*
X19265000Y-14261252D02*
X19265000Y-13738748D01*
X20735000Y-14261252D02*
X20735000Y-13738748D01*
%TO.C,R4*%
X17772936Y-5265000D02*
X18227064Y-5265000D01*
X17772936Y-6735000D02*
X18227064Y-6735000D01*
%TO.C,R5*%
X28772936Y-5265000D02*
X29227064Y-5265000D01*
X28772936Y-6735000D02*
X29227064Y-6735000D01*
%TO.C,R2*%
X14772936Y-26265000D02*
X15227064Y-26265000D01*
X14772936Y-27735000D02*
X15227064Y-27735000D01*
%TO.C,R1*%
X14772936Y-12265000D02*
X15227064Y-12265000D01*
X14772936Y-13735000D02*
X15227064Y-13735000D01*
%TO.C,C2*%
X31265000Y-14261252D02*
X31265000Y-13738748D01*
X32735000Y-14261252D02*
X32735000Y-13738748D01*
%TO.C,R6*%
X39772936Y-5265000D02*
X40227064Y-5265000D01*
X39772936Y-6735000D02*
X40227064Y-6735000D01*
%TO.C,D1*%
X21315000Y-5040000D02*
X21315000Y-6960000D01*
X21315000Y-6960000D02*
X24000000Y-6960000D01*
X24000000Y-5040000D02*
X21315000Y-5040000D01*
%TO.C,R3*%
X25772936Y-27265000D02*
X26227064Y-27265000D01*
X25772936Y-28735000D02*
X26227064Y-28735000D01*
%TO.C,J2*%
X46620000Y-12620000D02*
X48000000Y-12620000D01*
X46620000Y-14000000D02*
X46620000Y-12620000D01*
X46620000Y-15270000D02*
X46620000Y-17920000D01*
X46620000Y-15270000D02*
X49380000Y-15270000D01*
X46620000Y-17920000D02*
X49380000Y-17920000D01*
X49380000Y-15270000D02*
X49380000Y-17920000D01*
%TO.C,U1*%
D12*
X23450000Y-17950000D02*
X28550000Y-17950000D01*
X23450000Y-19200000D02*
X23450000Y-17950000D01*
X23450000Y-20800000D02*
X23450000Y-22050000D01*
X28550000Y-17950000D02*
X28550000Y-22050000D01*
X28550000Y-22050000D02*
X23450000Y-22050000D01*
X23492227Y-19196354D02*
G75*
G02*
X23500000Y-20800000I-372227J-803646D01*
G01*
X23140000Y-22500000D02*
G75*
G02*
X22800000Y-22500000I-170000J0D01*
G01*
X22800000Y-22500000D02*
G75*
G02*
X23140000Y-22500000I170000J0D01*
G01*
D13*
X23580000Y-22950000D02*
G75*
G02*
X23520000Y-22950000I-30000J0D01*
G01*
X23520000Y-22950000D02*
G75*
G02*
X23580000Y-22950000I30000J0D01*
G01*
%TO.C,D3*%
D11*
X43315000Y-5040000D02*
X43315000Y-6960000D01*
X43315000Y-6960000D02*
X46000000Y-6960000D01*
X46000000Y-5040000D02*
X43315000Y-5040000D01*
%TO.C,D2*%
X32315000Y-5040000D02*
X32315000Y-6960000D01*
X32315000Y-6960000D02*
X35000000Y-6960000D01*
X35000000Y-5040000D02*
X32315000Y-5040000D01*
%TO.C,J1*%
X3300000Y-18100000D02*
X3300000Y-20100000D01*
X3300000Y-22000000D02*
X3300000Y-23900000D01*
X3300000Y-23900000D02*
X12700000Y-23900000D01*
X12700000Y-18100000D02*
X12700000Y-20100000D01*
X12700000Y-22000000D02*
X12700000Y-23900000D01*
%TO.C,C3*%
X37265000Y-30261252D02*
X37265000Y-29738748D01*
X38735000Y-30261252D02*
X38735000Y-29738748D01*
%TO.C,J3*%
X46620000Y-26620000D02*
X48000000Y-26620000D01*
X46620000Y-28000000D02*
X46620000Y-26620000D01*
X46620000Y-29270000D02*
X46620000Y-37000000D01*
X46620000Y-29270000D02*
X49380000Y-29270000D01*
X46620000Y-37000000D02*
X49380000Y-37000000D01*
X49380000Y-29270000D02*
X49380000Y-37000000D01*
%TO.C,U2*%
D10*
X36430000Y-16670000D02*
X39370000Y-16670000D01*
X36430000Y-23330000D02*
X36430000Y-16670000D01*
X39370000Y-16670000D02*
X39370000Y-23330000D01*
X39370000Y-23330000D02*
X36430000Y-23330000D01*
D13*
X41430000Y-23250000D02*
G75*
G02*
X41370000Y-23250000I-30000J0D01*
G01*
X41370000Y-23250000D02*
G75*
G02*
X41430000Y-23250000I30000J0D01*
G01*
%TD*%
%LPC*%
D14*
%TO.C,C1*%
X20000000Y-14950000D03*
X20000000Y-13050000D03*
%TD*%
D15*
%TO.C,R4*%
X17087500Y-6000000D03*
X18912500Y-6000000D03*
%TD*%
%TO.C,R5*%
X28087500Y-6000000D03*
X29912500Y-6000000D03*
%TD*%
%TO.C,R2*%
X14087500Y-27000000D03*
X15912500Y-27000000D03*
%TD*%
%TO.C,R1*%
X14087500Y-13000000D03*
X15912500Y-13000000D03*
%TD*%
D14*
%TO.C,C2*%
X32000000Y-14950000D03*
X32000000Y-13050000D03*
%TD*%
D15*
%TO.C,R6*%
X39087500Y-6000000D03*
X40912500Y-6000000D03*
%TD*%
D16*
%TO.C,D1*%
X22062500Y-6000000D03*
X23937500Y-6000000D03*
%TD*%
D15*
%TO.C,R3*%
X25087500Y-28000000D03*
X26912500Y-28000000D03*
%TD*%
D17*
%TO.C,J2*%
X48000000Y-14000000D03*
D18*
X48000000Y-16540000D03*
%TD*%
D19*
%TO.C,U1*%
X24090000Y-22910000D03*
X25370000Y-22910000D03*
X26640000Y-22910000D03*
X27910000Y-22910000D03*
X27910000Y-17090000D03*
X26640000Y-17090000D03*
X25370000Y-17090000D03*
X24090000Y-17090000D03*
D20*
X26000000Y-20000000D03*
%TD*%
D16*
%TO.C,D3*%
X44062500Y-6000000D03*
X45937500Y-6000000D03*
%TD*%
%TO.C,D2*%
X33062500Y-6000000D03*
X34937500Y-6000000D03*
%TD*%
D21*
%TO.C,J1*%
X5110000Y-17400000D03*
X10890000Y-17400000D03*
D22*
X4750000Y-15955000D03*
X5550000Y-15955000D03*
D23*
X6750000Y-15955000D03*
X7750000Y-15955000D03*
X8250000Y-15955000D03*
X9250000Y-15955000D03*
D22*
X10450000Y-15955000D03*
X11250000Y-15955000D03*
X11250000Y-15955000D03*
X10450000Y-15955000D03*
D23*
X9750000Y-15955000D03*
X8750000Y-15955000D03*
X7250000Y-15955000D03*
X6250000Y-15955000D03*
D22*
X5550000Y-15955000D03*
X4750000Y-15955000D03*
D24*
X3680000Y-16870000D03*
D25*
X3680000Y-21050000D03*
D24*
X12320000Y-16870000D03*
D25*
X12320000Y-21050000D03*
%TD*%
D14*
%TO.C,C3*%
X38000000Y-30950000D03*
X38000000Y-29050000D03*
%TD*%
D17*
%TO.C,J3*%
X48000000Y-28000000D03*
D18*
X48000000Y-30540000D03*
X48000000Y-33080000D03*
X48000000Y-35620000D03*
%TD*%
D26*
%TO.C,U2*%
X40970000Y-22300000D03*
X40970000Y-20000000D03*
X40970000Y-17700000D03*
D27*
X35030000Y-20000000D03*
%TD*%
%LPD*%
M02*
