%TF.GenerationSoftware,KiCad,Pcbnew,10.0.3*%
%TF.CreationDate,2026-09-03T16:17:29+06:00*%
%TF.ProjectId,usb_power_uart_utility,7573625f-706f-4776-9572-5f756172745f,rev?*%
%TF.SameCoordinates,Original*%
%TF.FileFunction,Copper,L1,Top*%
%TF.FilePolarity,Positive*%
%FSLAX46Y46*%
G04 Gerber Fmt 4.6, Leading zero omitted, Abs format (unit mm)*
G04 Created by KiCad (PCBNEW 10.0.3) date 2026-09-03 16:17:29*
%MOMM*%
%LPD*%
G01*
G04 APERTURE LIST*
G04 Aperture macros list*
%AMRoundRect*
0 Rectangle with rounded corners*
0 $1 Rounding radius*
0 $2 $3 $4 $5 $6 $7 $8 $9 X,Y pos of 4 corners*
0 Add a 4 corners polygon primitive as box body*
4,1,4,$2,$3,$4,$5,$6,$7,$8,$9,$2,$3,0*
0 Add four circle primitives for the rounded corners*
1,1,$1+$1,$2,$3*
1,1,$1+$1,$4,$5*
1,1,$1+$1,$6,$7*
1,1,$1+$1,$8,$9*
0 Add four rect primitives between the rounded corners*
20,1,$1+$1,$2,$3,$4,$5,0*
20,1,$1+$1,$4,$5,$6,$7,0*
20,1,$1+$1,$6,$7,$8,$9,0*
20,1,$1+$1,$8,$9,$2,$3,0*%
G04 Aperture macros list end*
%TA.AperFunction,SMDPad,CuDef*%
%ADD10RoundRect,0.250000X0.450000X-0.262500X0.450000X0.262500X-0.450000X0.262500X-0.450000X-0.262500X0*%
%TD*%
%TA.AperFunction,SMDPad,CuDef*%
%ADD11RoundRect,0.250000X0.475000X-0.250000X0.475000X0.250000X-0.475000X0.250000X-0.475000X-0.250000X0*%
%TD*%
%TA.AperFunction,SMDPad,CuDef*%
%ADD12RoundRect,0.243750X-0.243750X-0.456250X0.243750X-0.456250X0.243750X0.456250X-0.243750X0.456250X0*%
%TD*%
%TA.AperFunction,SMDPad,CuDef*%
%ADD13RoundRect,0.150000X-0.150000X-0.575000X0.150000X-0.575000X0.150000X0.575000X-0.150000X0.575000X0*%
%TD*%
%TA.AperFunction,SMDPad,CuDef*%
%ADD14RoundRect,0.075000X-0.075000X-0.650000X0.075000X-0.650000X0.075000X0.650000X-0.075000X0.650000X0*%
%TD*%
%TA.AperFunction,ComponentPad*%
%ADD15O,1.000000X2.100000*%
%TD*%
%TA.AperFunction,ComponentPad*%
%ADD16O,1.000000X1.600000*%
%TD*%
%TA.AperFunction,ComponentPad*%
%ADD17R,1.700000X1.700000*%
%TD*%
%TA.AperFunction,ComponentPad*%
%ADD18C,1.700000*%
%TD*%
%TA.AperFunction,SMDPad,CuDef*%
%ADD19R,1.000000X0.800000*%
%TD*%
%TA.AperFunction,SMDPad,CuDef*%
%ADD20R,0.700000X1.500000*%
%TD*%
%TA.AperFunction,SMDPad,CuDef*%
%ADD21RoundRect,0.375000X-0.625000X-0.375000X0.625000X-0.375000X0.625000X0.375000X-0.625000X0.375000X0*%
%TD*%
%TA.AperFunction,SMDPad,CuDef*%
%ADD22RoundRect,0.500000X-0.500000X-1.400000X0.500000X-1.400000X0.500000X1.400000X-0.500000X1.400000X0*%
%TD*%
%TA.AperFunction,SMDPad,CuDef*%
%ADD23RoundRect,0.150000X-0.825000X-0.150000X0.825000X-0.150000X0.825000X0.150000X-0.825000X0.150000X0*%
%TD*%
%TA.AperFunction,SMDPad,CuDef*%
%ADD24RoundRect,0.250000X-0.375000X-0.625000X0.375000X-0.625000X0.375000X0.625000X-0.375000X0.625000X0*%
%TD*%
%TA.AperFunction,ViaPad*%
%ADD25C,0.600000*%
%TD*%
%TA.AperFunction,Conductor*%
%ADD26C,0.250000*%
%TD*%
G04 APERTURE END LIST*
D10*
%TO.P,R2,1*%
%TO.N,CC2*%
X113000000Y-121412500D03*
%TO.P,R2,2*%
%TO.N,GND*%
X113000000Y-119587500D03*
%TD*%
D11*
%TO.P,C3,1*%
%TO.N,+3V3*%
X139000000Y-109450000D03*
%TO.P,C3,2*%
%TO.N,GND*%
X139000000Y-107550000D03*
%TD*%
D12*
%TO.P,D3,1*%
%TO.N,UART_RX*%
X141562500Y-121500000D03*
%TO.P,D3,2*%
%TO.N,NET_D3*%
X143437500Y-121500000D03*
%TD*%
D10*
%TO.P,R3,1*%
%TO.N,+3V3*%
X138500000Y-117912500D03*
%TO.P,R3,2*%
%TO.N,NET_D2*%
X138500000Y-116087500D03*
%TD*%
D13*
%TO.P,J1,A1*%
%TO.N,GND*%
X102250000Y-113455000D03*
%TO.P,J1,A4*%
%TO.N,VBUS*%
X103050000Y-113455000D03*
D14*
%TO.P,J1,A5*%
%TO.N,CC1*%
X104250000Y-113455000D03*
%TO.P,J1,A6*%
%TO.N,USB_DP*%
X105250000Y-113455000D03*
%TO.P,J1,A7*%
%TO.N,USB_DM*%
X105750000Y-113455000D03*
%TO.P,J1,A8*%
%TO.N,N/C*%
X106750000Y-113455000D03*
D13*
%TO.P,J1,A9*%
%TO.N,VBUS*%
X107950000Y-113455000D03*
%TO.P,J1,A12*%
%TO.N,GND*%
X108750000Y-113455000D03*
%TO.P,J1,B1*%
X108750000Y-113455000D03*
%TO.P,J1,B4*%
%TO.N,VBUS*%
X107950000Y-113455000D03*
D14*
%TO.P,J1,B5*%
%TO.N,CC2*%
X107250000Y-113455000D03*
%TO.P,J1,B6*%
%TO.N,USB_DP*%
X106250000Y-113455000D03*
%TO.P,J1,B7*%
%TO.N,USB_DM*%
X104750000Y-113455000D03*
%TO.P,J1,B8*%
%TO.N,N/C*%
X103750000Y-113455000D03*
D13*
%TO.P,J1,B9*%
%TO.N,VBUS*%
X103050000Y-113455000D03*
%TO.P,J1,B12*%
%TO.N,GND*%
X102250000Y-113455000D03*
D15*
%TO.P,J1,SH*%
X101180000Y-114370000D03*
D16*
%TO.N,N/C*%
X101180000Y-118550000D03*
D15*
X109820000Y-114370000D03*
D16*
X109820000Y-118550000D03*
%TD*%
D11*
%TO.P,C4,1*%
%TO.N,CH340_V3*%
X123500000Y-127950000D03*
%TO.P,C4,2*%
%TO.N,GND*%
X123500000Y-126050000D03*
%TD*%
D17*
%TO.P,J4,1*%
%TO.N,VBUS_SW*%
X152000000Y-122000000D03*
D18*
%TO.P,J4,2*%
%TO.N,+3V3*%
X152000000Y-124540000D03*
%TO.P,J4,3*%
%TO.N,UART_TX*%
X152000000Y-127080000D03*
%TO.P,J4,4*%
%TO.N,UART_RX*%
X152000000Y-129620000D03*
%TO.P,J4,5*%
%TO.N,GND*%
X152000000Y-132160000D03*
%TD*%
D10*
%TO.P,R4,1*%
%TO.N,+3V3*%
X142500000Y-117912500D03*
%TO.P,R4,2*%
%TO.N,NET_D3*%
X142500000Y-116087500D03*
%TD*%
%TO.P,R5,1*%
%TO.N,VBUS_SW*%
X123000000Y-111912500D03*
%TO.P,R5,2*%
%TO.N,NET_D1*%
X123000000Y-110087500D03*
%TD*%
D17*
%TO.P,J2,1*%
%TO.N,VBUS_SW*%
X152000000Y-106500000D03*
D18*
%TO.P,J2,2*%
%TO.N,GND*%
X152000000Y-109040000D03*
%TD*%
D19*
%TO.P,SW1,*%
%TO.N,*%
X112350000Y-105720000D03*
X112350000Y-107930000D03*
X119650000Y-105720000D03*
X119650000Y-107930000D03*
D20*
%TO.P,SW1,1*%
%TO.N,N/C*%
X113750000Y-105070000D03*
%TO.P,SW1,2*%
%TO.N,VBUS_SW*%
X116750000Y-105070000D03*
%TO.P,SW1,3*%
%TO.N,FUSE_IN*%
X118250000Y-105070000D03*
%TD*%
D21*
%TO.P,U2,1*%
%TO.N,GND*%
X129850000Y-106200000D03*
%TO.P,U2,2*%
%TO.N,+3V3*%
X129850000Y-108500000D03*
D22*
%TO.N,N/C*%
X136150000Y-108500000D03*
D21*
%TO.P,U2,3*%
%TO.N,VBUS_SW*%
X129850000Y-110800000D03*
%TD*%
D17*
%TO.P,J3,1*%
%TO.N,+3V3*%
X152000000Y-113500000D03*
D18*
%TO.P,J3,2*%
%TO.N,GND*%
X152000000Y-116040000D03*
%TD*%
D23*
%TO.P,U1,1*%
%TO.N,GND*%
X127525000Y-120055000D03*
%TO.P,U1,2*%
%TO.N,UART_TX*%
X127525000Y-121325000D03*
%TO.P,U1,3*%
%TO.N,UART_RX*%
X127525000Y-122595000D03*
%TO.P,U1,4*%
%TO.N,CH340_V3*%
X127525000Y-123865000D03*
%TO.P,U1,5*%
%TO.N,USB_DP*%
X127525000Y-125135000D03*
%TO.P,U1,6*%
%TO.N,USB_DM*%
X127525000Y-126405000D03*
%TO.P,U1,7*%
%TO.N,N/C*%
X127525000Y-127675000D03*
%TO.P,U1,8*%
X127525000Y-128945000D03*
%TO.P,U1,9*%
X132475000Y-128945000D03*
%TO.P,U1,10*%
X132475000Y-127675000D03*
%TO.P,U1,11*%
X132475000Y-126405000D03*
%TO.P,U1,12*%
X132475000Y-125135000D03*
%TO.P,U1,13*%
X132475000Y-123865000D03*
%TO.P,U1,14*%
X132475000Y-122595000D03*
%TO.P,U1,15*%
X132475000Y-121325000D03*
%TO.P,U1,16*%
%TO.N,+3V3*%
X132475000Y-120055000D03*
%TD*%
D11*
%TO.P,C1,1*%
%TO.N,+3V3*%
X123500000Y-122950000D03*
%TO.P,C1,2*%
%TO.N,GND*%
X123500000Y-121050000D03*
%TD*%
%TO.P,C2,1*%
%TO.N,VBUS_SW*%
X127000000Y-109450000D03*
%TO.P,C2,2*%
%TO.N,GND*%
X127000000Y-107550000D03*
%TD*%
D24*
%TO.P,F1,1*%
%TO.N,VBUS*%
X116600000Y-117500000D03*
%TO.P,F1,2*%
%TO.N,FUSE_IN*%
X119400000Y-117500000D03*
%TD*%
D12*
%TO.P,D2,1*%
%TO.N,UART_TX*%
X137562500Y-121500000D03*
%TO.P,D2,2*%
%TO.N,NET_D2*%
X139437500Y-121500000D03*
%TD*%
D10*
%TO.P,R1,1*%
%TO.N,CC1*%
X113000000Y-115412500D03*
%TO.P,R1,2*%
%TO.N,GND*%
X113000000Y-113587500D03*
%TD*%
D12*
%TO.P,D1,1*%
%TO.N,GND*%
X122062500Y-106500000D03*
%TO.P,D1,2*%
%TO.N,NET_D1*%
X123937500Y-106500000D03*
%TD*%
D25*
%TO.N,CC2*%
X109935100Y-121899700D03*
X107519200Y-112210900D03*
%TO.N,+3V3*%
X150905200Y-110826200D03*
%TO.N,USB_DP*%
X112875800Y-112458300D03*
X126158600Y-125743600D03*
%TO.N,USB_DM*%
X106358200Y-114864400D03*
X116815800Y-128848700D03*
%TO.N,FUSE_IN*%
X120536900Y-117500000D03*
X120668400Y-106977700D03*
%TD*%
%TO.N,CC2*%
D26*
X107250000Y-113455000D02*
X107250000Y-112480100D01*
X113000000Y-121412500D02*
X112512800Y-121899700D01*
X107250000Y-112480100D02*
X107519200Y-112210900D01*
X112512800Y-121899700D02*
X109935100Y-121899700D01*
%TO.N,GND*%
X124495000Y-120055000D02*
X123500000Y-121050000D01*
X128350000Y-106200000D02*
X127000000Y-107550000D01*
X101180000Y-114370000D02*
X102095000Y-113455000D01*
X139000000Y-107550000D02*
X150510000Y-107550000D01*
X122062500Y-106948700D02*
X122062500Y-106500000D01*
X122446300Y-122103700D02*
X122446300Y-124996300D01*
X137650000Y-106200000D02*
X139000000Y-107550000D01*
X120046900Y-108964300D02*
X122062500Y-106948700D01*
X129850000Y-106200000D02*
X137650000Y-106200000D01*
X122062500Y-106500000D02*
X123099200Y-105463300D01*
X102250000Y-112843300D02*
X106129000Y-108964300D01*
X111932600Y-118520100D02*
X111932600Y-115942800D01*
X119930100Y-119587500D02*
X122446300Y-122103700D01*
X102250000Y-113455000D02*
X102250000Y-112843300D01*
X122446300Y-124996300D02*
X123500000Y-126050000D01*
X101180000Y-115746700D02*
X101376100Y-115942800D01*
X123500000Y-121050000D02*
X122446300Y-122103700D01*
X101376100Y-115942800D02*
X111932600Y-115942800D01*
X111932600Y-115942800D02*
X111932600Y-114654900D01*
X127525000Y-120055000D02*
X124495000Y-120055000D01*
X102095000Y-113455000D02*
X102250000Y-113455000D01*
X124913300Y-105463300D02*
X127000000Y-107550000D01*
X112373300Y-112960800D02*
X113000000Y-113587500D01*
X129850000Y-106200000D02*
X128350000Y-106200000D01*
X106129000Y-108964300D02*
X120046900Y-108964300D01*
X111932600Y-114654900D02*
X113000000Y-113587500D01*
X101180000Y-114370000D02*
X101180000Y-115746700D01*
X109244200Y-112960800D02*
X112373300Y-112960800D01*
X113000000Y-119587500D02*
X111932600Y-118520100D01*
X113000000Y-119587500D02*
X119930100Y-119587500D01*
X108750000Y-113455000D02*
X109244200Y-112960800D01*
X150510000Y-107550000D02*
X152000000Y-109040000D01*
X123099200Y-105463300D02*
X124913300Y-105463300D01*
%TO.N,+3V3*%
X131840000Y-120690000D02*
X125760000Y-120690000D01*
X132475000Y-120055000D02*
X131840000Y-120690000D01*
X132110900Y-110760900D02*
X129850000Y-108500000D01*
X138990500Y-117422000D02*
X139571000Y-117422000D01*
X142009500Y-117422000D02*
X142500000Y-117912500D01*
X137327500Y-115202500D02*
X139571000Y-115202500D01*
X137689100Y-110760900D02*
X132110900Y-110760900D01*
X138500000Y-117912500D02*
X138990500Y-117422000D01*
X132475000Y-120055000D02*
X137327500Y-115202500D01*
X139571000Y-117422000D02*
X142009500Y-117422000D01*
X125760000Y-120690000D02*
X123500000Y-122950000D01*
X143196700Y-115202500D02*
X150635200Y-122641000D01*
X149529000Y-109450000D02*
X139000000Y-109450000D01*
X139571000Y-117422000D02*
X139571000Y-115202500D01*
X150905200Y-110826200D02*
X149529000Y-109450000D01*
X139000000Y-109450000D02*
X137689100Y-110760900D01*
X150635200Y-123175200D02*
X152000000Y-124540000D01*
X139571000Y-115202500D02*
X143196700Y-115202500D01*
X150635200Y-122641000D02*
X150635200Y-123175200D01*
%TO.N,UART_RX*%
X135255300Y-124500000D02*
X140375300Y-129620000D01*
X141562500Y-121889000D02*
X141562500Y-121500000D01*
X127525000Y-122595000D02*
X128104200Y-122595000D01*
X145482000Y-125808500D02*
X141562500Y-121889000D01*
X151367300Y-125808500D02*
X145482000Y-125808500D01*
X153210700Y-126626400D02*
X152394300Y-125810000D01*
X128104200Y-122595000D02*
X130009200Y-124500000D01*
X152000000Y-129620000D02*
X153210700Y-128409300D01*
X153210700Y-128409300D02*
X153210700Y-126626400D01*
X152394300Y-125810000D02*
X151368800Y-125810000D01*
X151368800Y-125810000D02*
X151367300Y-125808500D01*
X130009200Y-124500000D02*
X135255300Y-124500000D01*
X140375300Y-129620000D02*
X152000000Y-129620000D01*
%TO.N,NET_D3*%
X143437500Y-121500000D02*
X143553900Y-121383600D01*
X143553900Y-121383600D02*
X143553900Y-117141400D01*
X143553900Y-117141400D02*
X142500000Y-116087500D01*
%TO.N,NET_D2*%
X137472300Y-117115200D02*
X137472300Y-119534800D01*
X138500000Y-116087500D02*
X137472300Y-117115200D01*
X137472300Y-119534800D02*
X139437500Y-121500000D01*
%TO.N,VBUS*%
X103050000Y-114056600D02*
X104484500Y-115491100D01*
X103050000Y-113455000D02*
X103050000Y-114056600D01*
X116600000Y-114657400D02*
X112513200Y-110570600D01*
X106617800Y-115491100D02*
X107032600Y-115076300D01*
X103050000Y-112854500D02*
X103050000Y-113455000D01*
X107950000Y-114056600D02*
X107950000Y-113455000D01*
X112513200Y-110570600D02*
X105333900Y-110570600D01*
X104484500Y-115491100D02*
X106617800Y-115491100D01*
X107032600Y-115076300D02*
X107032600Y-114974000D01*
X116600000Y-117500000D02*
X116600000Y-114657400D01*
X107032600Y-114974000D02*
X107950000Y-114056600D01*
X105333900Y-110570600D02*
X103050000Y-112854500D01*
%TO.N,CC1*%
X113135400Y-111831600D02*
X112796300Y-111831600D01*
X112026200Y-111061500D02*
X105849200Y-111061500D01*
X112796300Y-111831600D02*
X112026200Y-111061500D01*
X104250000Y-112660700D02*
X104250000Y-113455000D01*
X114081000Y-113116300D02*
X113502500Y-112537800D01*
X114081000Y-114331500D02*
X114081000Y-113116300D01*
X113502500Y-112537800D02*
X113502500Y-112198700D01*
X113502500Y-112198700D02*
X113135400Y-111831600D01*
X113000000Y-115412500D02*
X114081000Y-114331500D01*
X105849200Y-111061500D02*
X104250000Y-112660700D01*
%TO.N,USB_DP*%
X126158600Y-125743600D02*
X126916400Y-125743600D01*
X105250000Y-112603500D02*
X105508800Y-112344700D01*
X105250000Y-113455000D02*
X105250000Y-112603500D01*
X126916400Y-125743600D02*
X127525000Y-125135000D01*
X106250000Y-112344700D02*
X107030300Y-111564400D01*
X106250000Y-112344700D02*
X106250000Y-113455000D01*
X107030300Y-111564400D02*
X111613600Y-111564400D01*
X111613600Y-111564400D02*
X112507500Y-112458300D01*
X105508800Y-112344700D02*
X106250000Y-112344700D01*
X112507500Y-112458300D02*
X112875800Y-112458300D01*
%TO.N,USB_DM*%
X105500300Y-114531900D02*
X105012800Y-114531900D01*
X106332200Y-114864400D02*
X105750000Y-114282200D01*
X105750000Y-114282200D02*
X105500300Y-114531900D01*
X124145200Y-128848700D02*
X126588900Y-126405000D01*
X126588900Y-126405000D02*
X127525000Y-126405000D01*
X105750000Y-113455000D02*
X105750000Y-114282200D01*
X105012800Y-114531900D02*
X104750000Y-114269100D01*
X106358200Y-114864400D02*
X106332200Y-114864400D01*
X116815800Y-128848700D02*
X124145200Y-128848700D01*
X104750000Y-114269100D02*
X104750000Y-113455000D01*
%TO.N,CH340_V3*%
X127135300Y-123865000D02*
X124573800Y-126426500D01*
X124573800Y-126876200D02*
X123500000Y-127950000D01*
X124573800Y-126426500D02*
X124573800Y-126876200D01*
X127525000Y-123865000D02*
X127135300Y-123865000D01*
%TO.N,VBUS_SW*%
X152000000Y-122000000D02*
X152000000Y-120823300D01*
X150806500Y-111457500D02*
X150806500Y-119629800D01*
X130507500Y-111457500D02*
X150806500Y-111457500D01*
X152367800Y-107676700D02*
X152000000Y-107676700D01*
X152000000Y-106500000D02*
X150823300Y-106500000D01*
X129850000Y-110800000D02*
X130507500Y-111457500D01*
X151258000Y-111457500D02*
X153176700Y-109538800D01*
X124537500Y-111912500D02*
X123000000Y-111912500D01*
X148316600Y-103993300D02*
X116750000Y-103993300D01*
X116750000Y-105070000D02*
X116750000Y-103993300D01*
X127000000Y-109450000D02*
X124537500Y-111912500D01*
X129850000Y-110800000D02*
X128350000Y-110800000D01*
X128350000Y-110800000D02*
X127000000Y-109450000D01*
X153176700Y-109538800D02*
X153176700Y-108485600D01*
X153176700Y-108485600D02*
X152367800Y-107676700D01*
X150806500Y-111457500D02*
X151258000Y-111457500D01*
X150823300Y-106500000D02*
X148316600Y-103993300D01*
X152000000Y-106500000D02*
X152000000Y-107676700D01*
X150806500Y-119629800D02*
X152000000Y-120823300D01*
%TO.N,UART_TX*%
X137102500Y-121960000D02*
X137562500Y-121500000D01*
X127525000Y-121325000D02*
X128160000Y-121960000D01*
X143142500Y-127080000D02*
X152000000Y-127080000D01*
X128160000Y-121960000D02*
X137102500Y-121960000D01*
X137562500Y-121500000D02*
X143142500Y-127080000D01*
%TO.N,NET_D1*%
X123937500Y-106500000D02*
X123937500Y-109150000D01*
X123937500Y-109150000D02*
X123000000Y-110087500D01*
%TO.N,FUSE_IN*%
X119525400Y-106977700D02*
X118250000Y-105702300D01*
X119400000Y-117500000D02*
X120536900Y-117500000D01*
X120668400Y-106977700D02*
X119525400Y-106977700D01*
X118250000Y-105702300D02*
X118250000Y-105070000D01*
%TD*%
M02*
