%TF.GenerationSoftware,KiCad,Pcbnew,10.0.3*%
%TF.CreationDate,2026-09-03T16:17:29+06:00*%
%TF.ProjectId,usb_power_uart_utility,7573625f-706f-4776-9572-5f756172745f,rev?*%
%TF.SameCoordinates,Original*%
%TF.FileFunction,Paste,Top*%
%TF.FilePolarity,Positive*%
%FSLAX46Y46*%
G04 Gerber Fmt 4.6, Leading zero omitted, Abs format (unit mm)*
G04 Created by KiCad (PCBNEW 10.0.3) date 2026-09-03 16:17:29*
%MOMM*%
%LPD*%
G01*
G04 APERTURE LIST*
G04 Aperture macros list*
%AMRoundRect*
0 Rectangle with rounded corners*
0 $1 Rounding radius*
0 $2 $3 $4 $5 $6 $7 $8 $9 X,Y pos of 4 corners*
0 Add a 4 corners polygon primitive as box body*
4,1,4,$2,$3,$4,$5,$6,$7,$8,$9,$2,$3,0*
0 Add four circle primitives for the rounded corners*
1,1,$1+$1,$2,$3*
1,1,$1+$1,$4,$5*
1,1,$1+$1,$6,$7*
1,1,$1+$1,$8,$9*
0 Add four rect primitives between the rounded corners*
20,1,$1+$1,$2,$3,$4,$5,0*
20,1,$1+$1,$4,$5,$6,$7,0*
20,1,$1+$1,$6,$7,$8,$9,0*
20,1,$1+$1,$8,$9,$2,$3,0*%
G04 Aperture macros list end*
%ADD10RoundRect,0.250000X0.450000X-0.262500X0.450000X0.262500X-0.450000X0.262500X-0.450000X-0.262500X0*%
%ADD11RoundRect,0.250000X0.475000X-0.250000X0.475000X0.250000X-0.475000X0.250000X-0.475000X-0.250000X0*%
%ADD12RoundRect,0.243750X-0.243750X-0.456250X0.243750X-0.456250X0.243750X0.456250X-0.243750X0.456250X0*%
%ADD13RoundRect,0.150000X-0.150000X-0.575000X0.150000X-0.575000X0.150000X0.575000X-0.150000X0.575000X0*%
%ADD14RoundRect,0.075000X-0.075000X-0.650000X0.075000X-0.650000X0.075000X0.650000X-0.075000X0.650000X0*%
%ADD15R,1.000000X0.800000*%
%ADD16R,0.700000X1.500000*%
%ADD17RoundRect,0.375000X-0.625000X-0.375000X0.625000X-0.375000X0.625000X0.375000X-0.625000X0.375000X0*%
%ADD18RoundRect,0.500000X-0.500000X-1.400000X0.500000X-1.400000X0.500000X1.400000X-0.500000X1.400000X0*%
%ADD19RoundRect,0.150000X-0.825000X-0.150000X0.825000X-0.150000X0.825000X0.150000X-0.825000X0.150000X0*%
%ADD20RoundRect,0.250000X-0.375000X-0.625000X0.375000X-0.625000X0.375000X0.625000X-0.375000X0.625000X0*%
G04 APERTURE END LIST*
D10*
%TO.C,R2*%
X113000000Y-121412500D03*
X113000000Y-119587500D03*
%TD*%
D11*
%TO.C,C3*%
X139000000Y-109450000D03*
X139000000Y-107550000D03*
%TD*%
D12*
%TO.C,D3*%
X141562500Y-121500000D03*
X143437500Y-121500000D03*
%TD*%
D10*
%TO.C,R3*%
X138500000Y-117912500D03*
X138500000Y-116087500D03*
%TD*%
D13*
%TO.C,J1*%
X102250000Y-113455000D03*
X103050000Y-113455000D03*
D14*
X104250000Y-113455000D03*
X105250000Y-113455000D03*
X105750000Y-113455000D03*
X106750000Y-113455000D03*
D13*
X107950000Y-113455000D03*
X108750000Y-113455000D03*
X108750000Y-113455000D03*
X107950000Y-113455000D03*
D14*
X107250000Y-113455000D03*
X106250000Y-113455000D03*
X104750000Y-113455000D03*
X103750000Y-113455000D03*
D13*
X103050000Y-113455000D03*
X102250000Y-113455000D03*
%TD*%
D11*
%TO.C,C4*%
X123500000Y-127950000D03*
X123500000Y-126050000D03*
%TD*%
D10*
%TO.C,R4*%
X142500000Y-117912500D03*
X142500000Y-116087500D03*
%TD*%
%TO.C,R5*%
X123000000Y-111912500D03*
X123000000Y-110087500D03*
%TD*%
D15*
%TO.C,SW1*%
X112350000Y-105720000D03*
X112350000Y-107930000D03*
X119650000Y-105720000D03*
X119650000Y-107930000D03*
D16*
X113750000Y-105070000D03*
X116750000Y-105070000D03*
X118250000Y-105070000D03*
%TD*%
D17*
%TO.C,U2*%
X129850000Y-106200000D03*
X129850000Y-108500000D03*
D18*
X136150000Y-108500000D03*
D17*
X129850000Y-110800000D03*
%TD*%
D19*
%TO.C,U1*%
X127525000Y-120055000D03*
X127525000Y-121325000D03*
X127525000Y-122595000D03*
X127525000Y-123865000D03*
X127525000Y-125135000D03*
X127525000Y-126405000D03*
X127525000Y-127675000D03*
X127525000Y-128945000D03*
X132475000Y-128945000D03*
X132475000Y-127675000D03*
X132475000Y-126405000D03*
X132475000Y-125135000D03*
X132475000Y-123865000D03*
X132475000Y-122595000D03*
X132475000Y-121325000D03*
X132475000Y-120055000D03*
%TD*%
D11*
%TO.C,C1*%
X123500000Y-122950000D03*
X123500000Y-121050000D03*
%TD*%
%TO.C,C2*%
X127000000Y-109450000D03*
X127000000Y-107550000D03*
%TD*%
D20*
%TO.C,F1*%
X116600000Y-117500000D03*
X119400000Y-117500000D03*
%TD*%
D12*
%TO.C,D2*%
X137562500Y-121500000D03*
X139437500Y-121500000D03*
%TD*%
D10*
%TO.C,R1*%
X113000000Y-115412500D03*
X113000000Y-113587500D03*
%TD*%
D12*
%TO.C,D1*%
X122062500Y-106500000D03*
X123937500Y-106500000D03*
%TD*%
M02*
