M48
; DRILL file KiCad 10.0.3 date 2026-09-03T16:17:30
; FORMAT={-:-/ absolute / metric / decimal}
; #@! TF.CreationDate,2026-09-03T16:17:30+06:00
; #@! TF.GenerationSoftware,Kicad,Pcbnew,10.0.3
; #@! TF.FileFunction,Plated,1,2,PTH
FMAT,2
METRIC
; #@! TA.AperFunction,Plated,PTH,ViaDrill
T1C0.300
; #@! TA.AperFunction,Plated,PTH,ComponentDrill
T2C0.600
; #@! TA.AperFunction,Plated,PTH,ComponentDrill
T3C1.000
%
G90
G05
T1
X106.358Y-114.864
X107.519Y-112.211
X109.935Y-121.9
X112.876Y-112.458
X116.816Y-128.849
X120.537Y-117.5
X120.668Y-106.978
X126.159Y-125.744
X150.905Y-110.826
T3
X152.0Y-106.5
X152.0Y-109.04
X152.0Y-113.5
X152.0Y-116.04
X152.0Y-122.0
X152.0Y-124.54
X152.0Y-127.08
X152.0Y-129.62
X152.0Y-132.16
T2
X101.18Y-113.82G85X101.18Y-114.92
G05
X101.18Y-118.25G85X101.18Y-118.85
G05
X109.82Y-113.82G85X109.82Y-114.92
G05
X109.82Y-118.25G85X109.82Y-118.85
G05
M30
